<?xml version="1.0" standalone="no"?> <!DOCTYPE svg PUBLIC "-//W3C//DTD SVG 1.0//EN" "http://www.w3.org/TR/2001/REC-SVG-20010904/DTD/svg10.dtd" > <svg xmlns="http://www.w3.org/2000/svg" width="100%" height="100%">
<defs >
<font horiz-adv-x="547" ><font-face
    font-family=""
    units-per-em="1000"
    panose-1="2 0 0 0 0 0 0 0 0 0"
    ascent="797"
    descent="-203"
    alphabetic="0" />
<missing-glyph horiz-adv-x="500" />
<glyph unicode=" " glyph-name="space" horiz-adv-x="252" />
<glyph unicode="!" glyph-name="exclam" horiz-adv-x="316" d="M90 721H227L211 234H106L90 721ZM92 126H227V0H92V126Z" />
<glyph unicode="&quot;" glyph-name="quotedbl" horiz-adv-x="430" d="M250 721H377L364 476H263L250 721ZM53 721H180L167 476H66L53 721Z" />
<glyph unicode="#" glyph-name="numbersign" horiz-adv-x="564" d="M66 531H168L197 721H283L254 531H364L393 721H480L451 531H526V428H436L417 303H499V198H401L371 0H283L313 198H204L174 0H87L117 198H38V303H133L152 428H66V531ZM220 303H329L348 428H239L220 303Z" />
<glyph unicode="$" glyph-name="dollar" horiz-adv-x="546" d="M186 -10Q94 0 38 33V132Q73 115 113 104T199 88L231 320L197 331Q158 343 130 359T82 398T53 453T43 530Q43 574 58 611T102 676T176 718T280 733H286L299 826H371L358 727Q393 722 418 714T463
695V596Q440 606 410 614T344 628L315 415L330 411Q371 398 403 383T458 344T491 288T503 207Q503 107 442 48T257 -14L239 -153H167L186 -10ZM381 196Q381 217 377 232T363 260T338 281T299 298L271 89Q327 95 354 123T381 196ZM160 540Q160 498 178 476T246 438L247
437L273 632Q218 630 189 606T160 540Z" />
<glyph unicode="%" glyph-name="percent" horiz-adv-x="950" d="M731 64Q765 64 784 87T804 158V221Q804 267 784 290T731 314Q700 314 681 291T661 222V159Q661 111 680 88T731 64ZM731 389Q768 389 800 377T856 343T892 286T906 209V176Q906 132 893 98T857
40T801 4T731 -9Q656 -9 608 36T560 171V202Q560 246 573 281T608 340T662 376T731 389ZM215 335Q140 335 92 380T44 515V546Q44 590 57 625T92 684T146 720T215 733Q252 733 284 721T340 687T376 630T390 553V520Q390 476 377 442T341 384T285 348T215 335ZM671
742H766L268 -42H173L671 742ZM215 408Q249 408 268 431T288 502V565Q288 611 268 634T215 658Q184 658 165 635T145 566V503Q145 455 164 432T215 408Z" />
<glyph unicode="&amp;" glyph-name="ampersand" horiz-adv-x="680" d="M288 -12Q166 -12 100 40T34 201Q34 242 46 273T79 329T128 372T190 406Q160 446 146 480T131 555Q131 603 146 636T189 691T252 723T330 733Q374 733 410 723T471 691T511 639T525 565Q525
525 512 497T476 447T423 411T360 380L494 214Q508 244 516 280T528 359H634Q629 293 610 237T558 135L667 0H519L478 50Q437 20 390 4T288 -12ZM298 86Q370 86 420 121L244 339Q226 329 212 318T188 293T172 259T166 215Q166 155 197 121T298 86ZM252 559Q252
543 255 530T265 505T282 479T305 449L312 440Q330 450 347 460T377 484T399 516T407 560Q407 601 385 621T331 642Q300 642 276 623T252 559Z" />
<glyph unicode="&apos;" glyph-name="quotesingle" horiz-adv-x="246" d="M60 721H187L174 476H73L60 721Z" />
<glyph unicode="(" glyph-name="parenleft" horiz-adv-x="356" d="M239 -125Q203 -90 169 -47T109 49T68 163T52 297V347Q52 419 67 481T109 595T169 690T239 769H344Q309 730 279 685T225 587T189 478T176 356V296Q176 233 189 175T225 63T278 -38T344 -125H239V-125Z" />
<glyph unicode=")" glyph-name="parenright" horiz-adv-x="356" d="M117 -125H12Q47 -86 77 -41T131 57T167 166T180 288V348Q180 411 167 469T131 581T78 682T12 769H117Q153 734 187 691T247 595T288 481T304 347V297Q304 225 289 163T247 49T187 -46T117 -125Z" />
<glyph unicode="*" glyph-name="asterisk" horiz-adv-x="465" d="M217 509L96 398L48 485L203 533L48 581L96 668L217 557L184 721H280L248 557L369 668L417 581L261 533L417 485L369 398L248 509L280 345H184L217 509Z" />
<glyph unicode="+" glyph-name="plus" horiz-adv-x="583" d="M238 278H58V381H238V574H345V381H525V278H345V86H238V278Z" />
<glyph unicode="," glyph-name="comma" horiz-adv-x="291" d="M84 129H225L179 -128H69L84 129Z" />
<glyph unicode="-" glyph-name="hyphen" horiz-adv-x="418" d="M71 350H347V247H71V350Z" />
<glyph unicode="." glyph-name="period" horiz-adv-x="291" d="M76 129H215V0H76V129Z" />
<glyph unicode="/" glyph-name="slash" horiz-adv-x="395" d="M267 769H373L109 -125H2L267 769Z" />
<glyph unicode="0" glyph-name="zero" horiz-adv-x="678" d="M340 -14Q281 -14 229 5T139 65T78 169T55 320V391Q55 483 78 548T141 654T232 714T341 733Q399 733 450 715T539 656T600 552T623 398V326Q623 235 601 171T541 65T451 5T340 -14ZM341 85Q378 85 407
96T455 134T485 202T495 304V408Q495 526 455 580T341 634Q267 634 227 583T187 415V310Q187 194 226 140T341 85Z" />
<glyph unicode="1" glyph-name="one" horiz-adv-x="419" d="M176 585L24 567V642L232 726H301V0H176V585Z" />
<glyph unicode="2" glyph-name="two" horiz-adv-x="549" d="M40 89L198 250Q234 286 262 317T310 379T340 439T351 505V515Q351 578 315 602T212 627Q164 627 124 616T52 591V688Q90 709 136 721T246 733Q358 733 420 681T482 529V517Q482 470 470 431T433 355T373
282T288 203L174 105V102H497V0H40V89Z" />
<glyph unicode="3" glyph-name="three" horiz-adv-x="541" d="M228 -11Q159 -11 113 2T34 33V129Q70 114 112 104T197 93Q276 93 318 119T360 210Q360 275 327 299T224 323H146V421H214Q278 421 309 446T340 529Q340 559 331 578T306 609T265 625T211 629Q163
629 129 621T62 602V697Q98 715 146 724T246 733Q346 733 405 688T464 551Q464 482 431 441T323 380V377Q365 370 396 358T449 325T480 275T490 203Q490 96 421 43T228 -11Z" />
<glyph unicode="4" glyph-name="four" horiz-adv-x="606" d="M348 187H22V277L359 721H468V284H584V187H468V0H348V187ZM121 278Q140 279 158 281Q174 282 192 283T228 284H348V462Q348 481 349 502T352 542Q354 563 356 585H352Q340 563 327 540Q316 520 302
498T274 457L232 401Q215 379 196 358T160 320Q141 300 121 281V278Z" />
<glyph unicode="5" glyph-name="five" horiz-adv-x="542" d="M228 -11Q160 -11 113 1T33 33V128Q68 111 108 102T197 93Q274 93 316 123T359 226Q359 297 318 326T197 355Q156 355 123 350T63 337L88 721H465V620H182L168 431Q185 440 206 446T261 452Q370 452
430 399T490 231Q490 175 472 130T421 54T338 6T228 -11Z" />
<glyph unicode="6" glyph-name="six" horiz-adv-x="625" d="M325 -14Q194 -14 124 65T53 291V381Q53 480 79 547T151 655T255 715T381 733Q487 733 534 706V613Q513 619 478 624T405 630Q361 630 321 622T251 589T203 516T184 390Q211 415 255 434T356 453Q405
453 446 440T515 401T560 333T576 235Q576 181 560 136T513 57T434 5T325 -14ZM322 82Q449 82 449 225Q449 268 440 294T413 335T372 354T319 359Q275 359 242 347T184 318V281Q184 187 215 135T322 82Z" />
<glyph unicode="7" glyph-name="seven" horiz-adv-x="518" d="M284 432Q297 460 314 492T349 552Q368 585 388 616V620H27V721H492V627L221 0H86L284 432Z" />
<glyph unicode="8" glyph-name="eight" horiz-adv-x="633" d="M315 -14Q187 -14 120 36T52 181Q52 251 96 295T212 365V370Q146 393 109 431T72 539Q72 585 89 621T137 682T213 720T314 733Q424 733 488 687T553 547Q553 482 516 442T415 373V368Q451 357 481
344T533 310T568 262T581 194Q581 94 512 40T315 -14ZM313 82Q378 82 415 107T453 185Q453 213 443 233T412 269T358 298T279 325Q233 305 202 274T171 189Q171 133 209 108T313 82ZM341 412Q363 425 380 437T409 464T427 497T433 540Q433 585 405 611T315 638Q260
638 229 615T197 544Q197 494 230 466T341 412Z" />
<glyph unicode="9" glyph-name="nine" horiz-adv-x="625" d="M244 -14Q192 -14 149 -6T82 17V111Q92 108 107 104T141 97T178 91T217 89Q271 89 313 97T384 129T428 200T443 322Q415 298 370 279T267 260Q219 260 179 273T109 314T64 384T48 483Q48 537 63 582T110
661T189 714T300 733Q361 733 411 715T496 659T551 565T571 434V339Q571 240 548 173T482 64T379 4T244 -14ZM305 355Q350 355 383 367T443 395V444Q443 539 407 589T302 639Q236 639 205 601T174 492Q174 449 183 422T209 380T250 360T305 355Z" />
<glyph unicode=":" glyph-name="colon" horiz-adv-x="301" d="M81 129H220V0H81V129ZM81 436H220V307H81V436Z" />
<glyph unicode=";" glyph-name="semicolon" horiz-adv-x="301" d="M82 436H221V307H82V436ZM339 129H480L434 -128H324L339 129Z" />
<glyph unicode="&lt;" glyph-name="less" horiz-adv-x="578" d="M76 284V382L493 588V474L197 333L493 194V79L76 284Z" />
<glyph unicode="=" glyph-name="equal" horiz-adv-x="602" d="M77 471H524V372H77V471ZM77 246H524V147H77V246Z" />
<glyph unicode="&gt;" glyph-name="greater" horiz-adv-x="578" d="M85 193L381 334L85 473V588L502 383V285L85 79V193Z" />
<glyph unicode="?" glyph-name="question" horiz-adv-x="447" d="M122 277Q122 304 128 325T146 364T176 399T219 436Q250 462 264 484T279 544Q279 594 250 612T165 630Q121 630 92 624T32 608V699Q68 716 107 724T200 733Q244 733 282 724T347 693T391 637T407
554Q407 521 402 498T386 455T355 416T309 375Q289 359 275 347T252 323T238 298T233 266V234H122V277ZM110 126H245V0H110V126Z" />
<glyph unicode="@" glyph-name="at" horiz-adv-x="935" d="M463 -163Q368 -163 292 -138T162 -63T81 60T52 228Q52 322 82 408T170 561T314 667T509 707Q593 707 662 681T781 608T858 494T885 348Q885 274 866 220T813 130T736 77T642 60Q588 60 563 77T529 121H525Q505
98 475 80T407 61Q344 61 307 100T269 215Q269 274 283 322T323 405T387 459T470 478Q502 478 527 468T567 444H571L577 470H678L627 188Q622 162 630 150T665 138Q691 138 715 149T757 186T786 249T797 342Q797 407 779 460T725 550T635 608T506 629Q419 629 351
599T236 515T165 388T140 229Q140 74 222 -6T463 -87Q538 -87 599 -73T700 -46V-114Q655 -134 596 -148T463 -163ZM436 141Q462 141 483 154T517 181L549 371Q541 383 523 391T479 399Q431 399 405 348T379 215Q379 178 394 160T436 141Z" />
<glyph unicode="A" glyph-name="A" horiz-adv-x="640" d="M257 721H384L624 0H498L443 172H180L126 0H13L257 721ZM211 270H411L375 385Q362 423 352 468T333 551Q323 596 315 640H311Q303 596 292 551Q283 513 272 468T248 385L211 270Z" />
<glyph unicode="B" glyph-name="B" horiz-adv-x="620" d="M80 721H318Q379 721 422 709T492 673T531 616T544 539Q544 511 539 486T520 441T479 406T411 380V376Q499 363 538 324T577 205Q577 160 563 123T519 58T444 16T336 0H80V721ZM323 98Q389 98 418 126T448
213Q448 273 417 299T318 326H202V98H323ZM302 418Q330 418 352 423T391 440T416 472T425 522Q425 581 397 602T307 623H202V418H302Z" />
<glyph unicode="C" glyph-name="C" horiz-adv-x="594" d="M356 -12Q283 -12 226 8T130 71T70 177T49 329V394Q49 488 73 553T141 658T243 715T370 733Q428 733 470 723T545 696V595Q504 611 466 619T377 628Q331 628 295 617T232 580T192 512T178 410V333Q178
215 223 154T379 93Q440 93 480 105T552 133V32Q516 12 468 0T356 -12Z" />
<glyph unicode="D" glyph-name="D" horiz-adv-x="687" d="M80 721H313Q473 721 555 644T638 395V343Q638 174 560 87T315 0H80V721ZM315 102Q367 102 404 114T464 153T498 223T509 330V396Q509 462 496 505T458 574T394 609T305 619H203V102H315Z" />
<glyph unicode="E" glyph-name="E" horiz-adv-x="581" d="M80 721H516V619H202V421H446V320H202V102H522V0H80V721Z" />
<glyph unicode="F" glyph-name="F" horiz-adv-x="544" d="M80 721H506V619H203V404H438V303H203V0H80V721Z" />
<glyph unicode="G" glyph-name="G" horiz-adv-x="675" d="M379 -12Q302 -12 241 6T138 65T72 170T49 325V387Q49 486 76 552T148 659T253 716T379 733Q451 733 498 720T577 691V588Q561 594 543 601T501 614T449 624T383 628Q323 628 283 611T220 562T188 490T178
402V328Q178 276 186 232T216 157T277 107T379 89Q409 89 438 94T487 107V269H358V367H606V31Q565 14 507 1T379 -12Z" />
<glyph unicode="H" glyph-name="H" horiz-adv-x="708" d="M80 721H203V423H505V721H628V0H505V320H203V0H80V721Z" />
<glyph unicode="I" glyph-name="I" horiz-adv-x="285" d="M81 721H204V0H81V721Z" />
<glyph unicode="J" glyph-name="J" horiz-adv-x="463" d="M183 -7Q134 -7 102 0T41 22V119Q63 111 92 105T156 99Q210 99 236 123T263 201V721H386V188Q386 145 374 110T337 48T274 8T183 -7Z" />
<glyph unicode="K" glyph-name="K" horiz-adv-x="621" d="M228 366L462 721H592L357 376L607 0H470L228 366ZM80 721H204V0H80V721Z" />
<glyph unicode="L" glyph-name="L" horiz-adv-x="535" d="M80 721H203V102H500V0H80V721Z" />
<glyph unicode="M" glyph-name="M" horiz-adv-x="845" d="M80 721H257L354 404Q366 364 378 310T400 205Q411 147 422 86H425Q436 147 447 205Q457 255 468 309T493 404L591 721H765V0H646V331Q646 378 647 436T650 547Q652 608 655 670H652Q639 609 626 550Q615
499 601 443T574 343L470 0H362L259 343Q246 385 233 441T208 549Q195 609 182 670H178Q180 608 182 547Q184 495 185 437T187 331V0H80V721Z" />
<glyph unicode="N" glyph-name="N" horiz-adv-x="704" d="M80 721H218L399 407Q420 370 441 328T480 249Q500 206 519 164H522Q519 208 517 253Q515 291 514 335T512 419V721H624V0H503L304 349Q283 386 262 429T223 509Q203 552 184 595H180Q183 550 186 504Q188
465 190 420T192 337V0H80V721Z" />
<glyph unicode="O" glyph-name="O" horiz-adv-x="708" d="M352 -12Q284 -12 228 8T132 71T71 177T49 327V393Q49 477 71 540T134 646T231 711T356 733Q424 733 480 713T575 650T637 544T659 393V327Q659 243 637 180T574 74T477 10T352 -12ZM356 86Q445 86 487
145T530 313V392Q530 513 490 573T352 634Q263 634 221 576T178 409V330Q178 208 219 147T356 86Z" />
<glyph unicode="P" glyph-name="P" horiz-adv-x="588" d="M80 721H322Q446 721 503 664T560 500Q560 385 500 328T330 270H203V0H80V721ZM306 367Q377 367 405 397T433 492Q433 563 406 592T309 621H203V367H306Z" />
<glyph unicode="Q" glyph-name="Q" horiz-adv-x="708" d="M284 -10Q238 3 196 25T121 85T69 182T49 327V393Q49 477 71 540T134 646T231 711T356 733Q424 733 480 713T575 650T637 544T659 393V327Q659 261 646 212T608 126T548 65T470 27V23L718 -22L692 -126L284
-10ZM356 82Q445 82 487 143T530 313V392Q530 513 490 573T352 634Q263 634 221 576T178 409V330Q178 208 219 145T356 82Z" />
<glyph unicode="R" glyph-name="R" horiz-adv-x="617" d="M80 721H317Q438 721 496 669T554 510Q554 434 522 391T421 325V320L600 0H466L309 285H202V0H80V721ZM305 380Q374 380 401 411T429 505Q429 568 401 595T303 622H201V380H305Z" />
<glyph unicode="S" glyph-name="S" horiz-adv-x="535" d="M246 -14Q177 -14 126 -1T38 33V135Q81 115 130 103T236 90Q307 90 339 118T371 196Q371 241 349 263T273 303L193 330Q157 342 129 358T82 397T53 453T43 530Q43 574 57 611T101 676T173 718T276 733Q344
733 385 721T455 695V593Q423 607 380 618T279 629Q222 629 193 607T163 540Q163 498 180 477T246 439L326 412Q365 399 396 383T449 344T483 288T495 207Q495 106 434 46T246 -14Z" />
<glyph unicode="T" glyph-name="T" horiz-adv-x="571" d="M223 619H27V721H544V619H346V0H223V619Z" />
<glyph unicode="U" glyph-name="U" horiz-adv-x="692" d="M349 -14Q215 -14 146 48T76 238V721H199V244Q199 198 209 167T238 118T286 92T353 84Q391 84 419 91T466 117T494 167T504 245V721H616V240Q616 109 550 48T349 -14Z" />
<glyph unicode="V" glyph-name="V" horiz-adv-x="634" d="M16 721H143L238 417Q252 370 267 314T294 208Q308 150 321 91H326Q339 151 352 209Q363 259 377 315T406 417L500 721H618L379 0H254L16 721Z" />
<glyph unicode="W" glyph-name="W" horiz-adv-x="894" d="M11 721H133L204 417Q215 372 223 317T240 211Q248 153 256 94H259Q267 153 277 212Q285 262 295 318T318 420L397 721H509L586 420Q597 375 608 319T627 212Q637 153 645 94H648Q655 153 664 211Q672
261 681 316T701 417L771 721H881L708 0H586L494 350Q484 387 476 434T462 524Q455 573 449 623H446Q441 573 434 524Q428 482 420 435T401 350L307 0H185L11 721Z" />
<glyph unicode="X" glyph-name="X" horiz-adv-x="635" d="M241 368L32 721H166L235 600Q251 571 266 540T295 482Q310 451 323 421H327Q339 451 353 482Q365 508 379 539T410 600L475 721H602L398 369L615 0H482L412 121Q396 148 379 181T348 244Q331 278 316
312H312Q296 277 279 243Q265 214 248 181T216 121L146 0H18L241 368Z" />
<glyph unicode="Y" glyph-name="Y" horiz-adv-x="588" d="M232 280L5 721H134L213 561Q228 531 243 494T270 425Q284 387 298 350H301Q314 387 328 425Q340 457 354 494T384 561L461 721H581L355 280V0H232V280Z" />
<glyph unicode="Z" glyph-name="Z" horiz-adv-x="569" d="M34 94L289 470Q305 493 325 518T365 566Q387 592 409 616V619H60V721H534V628L281 254Q265 230 245 204T205 156Q183 130 160 105V102H525V0H34V94Z" />
<glyph unicode="[" glyph-name="bracketleft" horiz-adv-x="385" d="M86 769H346V673H207V-29H346V-125H86V769Z" />
<glyph unicode="\" glyph-name="backslash" horiz-adv-x="395" d="M22 769H129L394 -125H287L22 769Z" />
<glyph unicode="]" glyph-name="bracketright" horiz-adv-x="385" d="M299 -125H39V-29H177V673H39V769H299V-125Z" />
<glyph unicode="^" glyph-name="asciicircum" horiz-adv-x="524" d="M212 721H314L481 425H379L262 610L145 425H43L212 721Z" />
<glyph unicode="_" glyph-name="underscore" horiz-adv-x="344" d="M-5 -59H349V-139H-5V-59Z" />
<glyph unicode="`" glyph-name="grave" horiz-adv-x="500" d="M82 787H211L304 617H200L82 787Z" />
<glyph unicode="a" glyph-name="a" horiz-adv-x="501" d="M192 -10Q120 -10 76 28T32 145Q32 220 76 257T199 305L319 321V362Q319 388 313 405T294 431T258 445T202 449Q164 449 131 444T73 434V521Q146 551 249 551Q340 551 389 513T439 389V0H340L330 54H324Q305
28 274 9T192 -10ZM229 77Q257 77 280 85T319 108V245L226 236Q152 229 152 151Q152 112 173 95T229 77Z" />
<glyph unicode="b" glyph-name="b" horiz-adv-x="578" d="M274 -12Q245 -12 216 -9T160 0T108 14T64 31V769H184V494H189Q218 519 254 535T342 551Q379 551 414 539T478 499T523 423T540 305V261Q540 121 473 55T274 -12ZM281 81Q307 81 331 87T374 111T404 161T415
244V294Q415 341 408 371T384 419T344 444T285 451Q253 451 227 442T184 424V102Q199 94 221 88T281 81Z" />
<glyph unicode="c" glyph-name="c" horiz-adv-x="470" d="M286 -10Q168 -10 102 50T36 242V290Q36 359 55 408T108 489T189 536T293 551Q345 551 378 543T437 519V421Q422 427 408 432T377 442T343 448T301 450Q236 450 199 416T161 303V247Q161 203 170 173T197
125T244 98T309 90Q356 90 389 102T442 123V31Q417 14 380 2T286 -10Z" />
<glyph unicode="d" glyph-name="d" horiz-adv-x="578" d="M248 -10Q209 -10 171 2T104 44T56 121T38 242V285Q38 358 55 409T102 491T175 537T269 551Q315 551 345 539T394 510V769H514V0H411L401 54H396Q371 25 335 8T248 -10ZM288 84Q324 84 351 96T394 123V429Q380
440 352 448T291 456Q260 456 236 449T196 424T171 376T162 298V246Q162 198 170 167T195 117T234 92T288 84Z" />
<glyph unicode="e" glyph-name="e" horiz-adv-x="529" d="M293 -10Q161 -10 99 55T36 245V294Q36 360 54 408T104 488T179 535T273 551Q391 551 443 490T495 302V235H160Q161 190 171 162T200 117T249 95T317 89Q370 89 406 99T478 127V40Q451 23 407 7T293 -10ZM272
461Q251 461 232 456T196 435T170 392T159 320H375Q375 401 349 431T272 461Z" />
<glyph unicode="f" glyph-name="f" horiz-adv-x="372" d="M104 446H16V541H104V608Q104 696 152 737T277 778Q314 778 340 773T381 759V675Q370 678 351 680T309 683Q267 683 246 663T224 597V541H353V446H224V0H104V446Z" />
<glyph unicode="g" glyph-name="g" horiz-adv-x="578" d="M266 -214Q208 -214 155 -203T71 -174V-86Q83 -91 101 -96T141 -105T189 -113T239 -116Q319 -116 356 -89T394 7V60H389Q365 36 331 23T245 10Q207 10 170 22T103 62T56 137T38 253V285Q38 358 55 409T102
491T175 537T269 551Q315 551 347 538T399 510H404L413 541H514V-5Q514 -62 498 -102T450 -167T372 -203T266 -214ZM286 103Q327 103 353 115T394 139V429Q380 440 352 448T291 456Q260 456 236 449T196 424T171 376T162 298V259Q162 212 171 182T196 134T235 110T286
103Z" />
<glyph unicode="h" glyph-name="h" horiz-adv-x="567" d="M64 769H184V486H189Q218 514 262 532T355 551Q430 551 467 516T505 402V0H385V372Q385 413 368 430T299 448Q270 448 239 440T184 419V0H64V769Z" />
<glyph unicode="i" glyph-name="i" horiz-adv-x="246" d="M63 541H183V0H63V541ZM61 752H185V637H61V752Z" />
<glyph unicode="j" glyph-name="j" horiz-adv-x="246" d="M24 -207Q-6 -207 -27 -202T-63 -188V-105Q-51 -107 -39 -109T-12 -111Q23 -111 43 -94T63 -37V541H183V-46Q183 -81 174 -110T146 -161T97 -195T24 -207ZM61 752H185V637H61V752Z" />
<glyph unicode="k" glyph-name="k" horiz-adv-x="510" d="M64 769H184V0H64V769ZM200 281L365 541H491L323 288L505 0H373L200 281Z" />
<glyph unicode="l" glyph-name="l" horiz-adv-x="300" d="M199 -7Q137 -7 101 23T64 124V769H184V143Q184 89 241 89Q250 89 259 90T278 93V11Q265 3 246 -2T199 -7Z" />
<glyph unicode="m" glyph-name="m" horiz-adv-x="849" d="M64 541H182V486H187Q219 515 258 533T343 551Q389 551 419 536T467 483H472Q512 515 555 533T645 551Q714 551 750 517T787 403V0H665V373Q665 414 649 431T590 449Q537 449 486 423V0H365V373Q365 414
350 431T289 449Q233 449 186 423V0H64V541Z" />
<glyph unicode="n" glyph-name="n" horiz-adv-x="567" d="M64 541H180V483H185Q217 513 261 532T355 551Q430 551 467 516T505 402V0H385V372Q385 413 368 430T299 448Q270 448 239 440T184 419V0H64V541Z" />
<glyph unicode="o" glyph-name="o" horiz-adv-x="564" d="M283 -10Q166 -10 101 55T36 245V291Q36 355 55 403T107 485T185 534T284 551Q399 551 463 487T528 296V250Q528 185 510 137T459 56T381 7T283 -10ZM285 83Q342 83 372 119T403 240V295Q403 346 394 377T368
427T329 451T282 458Q225 458 193 421T161 300V244Q161 194 170 163T197 114T236 90T285 83Z" />
<glyph unicode="p" glyph-name="p" horiz-adv-x="578" d="M64 541H180V485H185Q208 514 247 532T336 551Q377 551 414 539T479 497T523 421T540 302V258Q540 186 524 135T478 52T406 5T311 -10Q264 -10 234 3T184 32V-203H64V541ZM289 81Q320 81 343 89T383 116T407
166T415 243V294Q415 340 408 370T385 419T347 444T294 451Q256 451 228 441T184 419V113Q199 101 227 91T289 81Z" />
<glyph unicode="q" glyph-name="q" horiz-adv-x="575" d="M391 42H386Q365 21 333 6T250 -10Q213 -10 175 2T107 44T57 121T38 239V281Q38 359 59 410T116 493T200 538T304 551Q374 551 425 539T511 508V-203H391V42ZM286 87Q325 87 350 98T391 123V440Q374 448
350 453T296 458Q266 458 241 450T199 423T172 373T162 296V245Q162 198 171 168T196 119T236 94T286 87Z" />
<glyph unicode="r" glyph-name="r" horiz-adv-x="368" d="M59 541H174V467H180Q190 484 205 499T240 525T279 542T321 549Q346 549 353 544V434Q345 436 333 437T311 438Q276 438 240 428T179 401V0H59V541Z" />
<glyph unicode="s" glyph-name="s" horiz-adv-x="441" d="M208 -9Q157 -9 112 0T34 26V122Q51 115 67 109T101 99T142 92T192 89Q246 89 269 104T293 149Q293 176 281 190T224 216L165 230Q135 237 111 249T70 279T44 324T35 387Q35 462 82 506T230 551Q284 551
320 543T383 521V427Q360 437 323 445T241 454Q149 454 149 396Q149 369 163 356T213 334L272 320Q349 302 380 266T411 159Q411 75 359 33T208 -9Z" />
<glyph unicode="t" glyph-name="t" horiz-adv-x="392" d="M253 -7Q219 -7 192 0T146 23T116 65T105 131V446H16V541H105V672H225V541H364V446H225V150Q225 115 239 102T292 89Q309 89 333 93T371 103V21Q354 10 323 2T253 -7Z" />
<glyph unicode="u" glyph-name="u" horiz-adv-x="560" d="M218 -10Q141 -10 102 29T62 148V541H182V172Q182 127 198 108T263 88Q297 88 324 99T376 123V541H496V0H393L383 58H378Q344 29 306 10T218 -10Z" />
<glyph unicode="v" glyph-name="v" horiz-adv-x="522" d="M11 541H138L198 344Q210 305 221 259T242 174Q253 128 262 83H266Q274 128 285 174Q294 213 305 259T329 344L390 541H509L322 0H197L11 541Z" />
<glyph unicode="w" glyph-name="w" horiz-adv-x="772" d="M15 541H140L188 341Q196 309 204 266T218 183Q225 137 232 89H236Q242 136 250 182Q257 221 265 264T283 341L337 541H445L499 341Q507 309 516 266T533 183Q542 137 549 89H553Q560 136 567 182Q573
221 580 264T596 341L643 541H752L607 0H485L424 220Q415 250 409 289T397 363Q392 403 387 446H383Q379 403 374 363Q369 328 362 289T347 220L286 0H161L15 541Z" />
<glyph unicode="x" glyph-name="x" horiz-adv-x="507" d="M174 277L20 541H155L205 449Q218 425 228 402T245 360Q253 338 259 319H263Q268 338 275 360Q281 379 290 402T311 449L356 541H479L331 279L492 0H358L305 99Q294 119 285 141T267 182Q258 204 250 226H246Q239
204 230 182Q222 163 212 141T191 99L136 0H11L174 277Z" />
<glyph unicode="y" glyph-name="y" horiz-adv-x="511" d="M110 -207Q89 -207 66 -203T30 -190V-105Q53 -110 83 -110Q119 -110 142 -94T180 -40L199 11L11 541H138L197 365Q211 323 222 277T242 192Q252 147 259 104H262Q270 147 280 192Q288 230 299 276T325
365L381 541H500L293 -59Q267 -136 225 -171T110 -207Z" />
<glyph unicode="z" glyph-name="z" horiz-adv-x="478" d="M34 89L198 311Q216 336 236 359T273 402Q292 424 312 443V446H46V541H442V457L277 232Q258 206 238 182T201 139Q181 117 161 97V93H440V0H34V89Z" />
<glyph unicode="{" glyph-name="braceleft" horiz-adv-x="435" d="M395 -127Q317 -126 268 -112T191 -73T153 -16T143 57V176Q143 202 138 219T119 247T83 263T28 271V371Q61 373 83 378T118 394T137 422T143 466V585Q143 624 153 657T191 715T268 754T395 771V675Q360
673 335 668T294 652T271 623T264 575V460Q264 436 259 415T241 376T203 345T138 325V320Q178 314 202 301T240 271T259 231T264 184V69Q264 40 271 22T294 -8T335 -24T395 -31V-127V-127Z" />
<glyph unicode="|" glyph-name="bar" horiz-adv-x="323" d="M110 769H212V-125H110V769Z" />
<glyph unicode="}" glyph-name="braceright" horiz-adv-x="435" d="M40 -127V-31Q75 -29 100 -24T140 -8T163 21T171 69V184Q171 209 176 231T194 270T232 301T297 320V325Q257 332 233 345T195 375T176 414T171 460V575Q171 604 164 622T141 652T100 668T40 675V771Q118
769 167 755T244 716T282 658T292 585V466Q292 440 297 423T316 395T352 379T407 371V271Q374 269 352 264T317 248T298 220T292 176V57Q292 18 282 -15T244 -73T167 -111T40 -127Z" />
<glyph unicode="~" glyph-name="asciitilde" horiz-adv-x="462" d="M41 236Q49 312 80 348T160 384Q180 384 199 378T237 363T270 349T298 342Q315 342 326 355T340 389H421Q413 313 382 277T302 241Q282 241 263 247T225 261T192 275T164 282Q147 282 137 270T122
236H41V236Z" />
<glyph unicode="&#xa0;" glyph-name="uni00A0" horiz-adv-x="252" />
<glyph unicode="&#xa1;" glyph-name="exclamdown" horiz-adv-x="316" d="M225 -125H88L104 362H209L225 -125ZM223 470H88V596H223V470Z" />
<glyph unicode="&#xa2;" glyph-name="cent" horiz-adv-x="470" d="M284 -10L260 -154H184L209 -2Q126 15 81 74T36 242V290Q36 359 55 408T108 489T189 536T293 551H299L315 646H393L376 543Q394 538 408 533T437 519V421Q417 429 399 435T359 445L300 90H309Q356
90 389 102T442 123V31Q417 14 380 2T286 -10H284ZM161 247Q161 187 177 154T226 104L283 449Q226 444 194 410T161 303V247Z" />
<glyph unicode="&#xa3;" glyph-name="sterling" horiz-adv-x="554" d="M51 400H126V495Q126 559 145 604T198 677T273 719T362 733Q413 733 449 723T506 697V609Q477 620 453 625T390 630Q363 630 338 624T293 602T261 558T249 487V400H427V313H249V270Q249 205
228 168T160 104V100H513V0H43V89Q84 113 105 151T126 257V313H51V400Z" />
<glyph unicode="&#xa5;" glyph-name="yen" horiz-adv-x="608" d="M73 353H216L26 721H157L226 576Q240 545 255 509T282 441Q296 404 309 367H312Q325 403 338 440Q349 472 363 508T393 576L460 721H582L392 353H536V271H365V198H536V116H365V0H244V116H73V198H244V271H73V353Z"
/>
<glyph unicode="&#xa6;" glyph-name="brokenbar" horiz-adv-x="323" d="M110 267H212V-125H110V267ZM110 762H212V387H110V762Z" />
<glyph unicode="&#xa7;" glyph-name="section" horiz-adv-x="522" d="M243 -137Q133 -137 65 -97V0Q83 -8 100 -14T136 -26T177 -34T227 -37Q284 -37 311 -19T338 33Q338 49 335 60T322 80T298 96T259 110L179 134Q146 144 118 157T69 190T37 237T25 302Q25 354
51 385T125 432Q100 453 86 484T71 561Q71 639 123 686T283 733Q342 733 377 723T440 699V602Q414 613 378 623T293 634Q244 634 218 618T191 569Q191 537 204 522T256 494L344 468Q383 456 412 443T462 410T492 364T503 298Q503 243 478 213T407 166Q433 145 448
115T463 43Q463 -46 407 -91T243 -137ZM202 394Q171 386 155 366T139 319Q139 287 158 268T225 235L322 206Q354 216 371 236T389 282Q389 315 367 332T292 367L202 394Z" />
<glyph unicode="&#xa8;" glyph-name="dieresis" horiz-adv-x="500" d="M294 748H411V637H294V748ZM89 748H206V637H89V748Z" />
<glyph unicode="&#xa9;" glyph-name="copyright" horiz-adv-x="840" d="M418 -15Q341 -15 275 14T161 94T86 213T59 358Q59 435 86 502T161 620T275 699T418 728Q495 728 561 699T676 620T752 503T780 358Q780 281 753 213T676 95T561 15T418 -15ZM418 38Q483
38 538 62T632 128T694 230T717 358Q717 427 695 485T633 586T538 651T418 675Q353 675 299 652T206 586T145 486T123 358Q123 289 145 230T206 129T299 62T418 38ZM431 168Q352 168 305 209T258 342V374Q258 422 272 455T310 509T366 539T434 549Q468 549 490
543T528 528V454Q508 461 489 465T443 469Q404 469 381 450T357 381V342Q357 289 378 267T447 245Q478 245 497 251T531 266V191Q513 182 489 175T431 168Z" />
<glyph unicode="&#xaa;" glyph-name="ordfeminine" horiz-adv-x="460" d="M208 310Q234 310 255 317T288 337V451L208 443Q177 440 163 424T148 373Q148 340 164 325T208 310ZM174 228Q112 228 74 262T35 366Q35 435 74 469T183 512L288 525V559Q288 582 283 597T265
620T234 632T185 636Q150 636 121 631T69 621V703Q103 716 142 723T229 731Q311 731 356 697T401 585V237H306L298 277H293Q275 256 246 242T174 228Z" />
<glyph unicode="&#xab;" glyph-name="guillemotleft" horiz-adv-x="512" d="M35 244V281L160 498H264L141 263L264 27H160L35 244ZM248 244V281L372 498H476L354 263L476 27H372L248 244Z" />
<glyph unicode="&#xae;" glyph-name="registered" horiz-adv-x="618" d="M212 590H316Q363 590 388 571T414 512Q414 486 403 470T374 446V443L427 335H353L309 428H282V335H212V590ZM308 225Q356 225 395 243T463 293T507 366T523 456Q523 504 508 546T464 620T396
669T308 687Q260 687 221 670T154 621T111 547T95 456Q95 408 110 366T153 293T220 244T308 225ZM282 477H309Q328 477 335 485T343 509Q343 523 336 531T309 540H282V477ZM308 177Q251 177 202 199T116 259T59 348T38 456Q38 514 59 565T116 654T201 713T308 735Q365
735 414 714T500 654T557 565T578 456Q578 399 557 349T500 260T415 199T308 177Z" />
<glyph unicode="&#xaf;" glyph-name="macron" horiz-adv-x="500" d="M106 736H393V644H106V736Z" />
<glyph unicode="&#xb0;" glyph-name="degree" horiz-adv-x="459" d="M230 386Q192 386 160 399T105 436T68 491T54 558Q54 593 67 624T104 679T160 716T230 730Q268 730 300 717T355 680T392 625T405 558Q405 523 392 492T356 437T300 400T230 386ZM230 458Q273
458 297 487T322 558Q322 600 298 629T230 658Q186 658 162 629T137 558Q137 516 161 487T230 458Z" />
<glyph unicode="&#xb1;" glyph-name="plusminus" horiz-adv-x="583" d="M238 310H58V413H238V566H345V413H525V310H345V157H238V310ZM58 0V103H525V0H58Z" />
<glyph unicode="&#xb4;" glyph-name="acute" horiz-adv-x="500" d="M290 787H419L301 617H197L290 787Z" />
<glyph unicode="&#xb6;" glyph-name="paragraph" horiz-adv-x="621" d="M284 345H249Q207 345 171 357T106 393T62 452T46 532Q46 571 58 605T99 665T170 706T276 721H538V-125H460V647H362V-125H284V345Z" />
<glyph unicode="&#xb7;" glyph-name="periodcentered" horiz-adv-x="291" d="M76 399H215V270H76V399Z" />
<glyph unicode="&#xb8;" glyph-name="cedilla" horiz-adv-x="500" d="M190 -190Q225 -186 247 -181T281 -170T297 -157T301 -140Q301 -123 286 -116T222 -107V0H298V-52Q352 -57 375 -78T398 -137Q398 -158 390 -177T358 -210T295 -235T190 -249V-190Z" />
<glyph unicode="&#xba;" glyph-name="ordmasculine" horiz-adv-x="512" d="M256 228Q147 228 93 287T39 455V500Q39 612 97 671T256 731Q365 731 419 672T473 504V459Q473 347 415 288T256 228ZM256 316Q307 316 332 348T357 450V504Q357 546 350 573T330 615T298
637T256 643Q205 643 180 611T155 508V454Q155 412 162 385T182 343T214 322T256 316Z" />
<glyph unicode="&#xbb;" glyph-name="guillemotright" horiz-adv-x="512" d="M371 262L248 498H352L477 281V244L352 27H248L371 262ZM158 262L36 498H140L264 281V244L140 27H36L158 262Z" />
<glyph unicode="&#xbc;" glyph-name="onequarter" horiz-adv-x="875" d="M385 622L289 610V669L428 723H483V282H385V622ZM636 742H731L233 -42H138L636 742ZM685 -72V33H482V100L692 369H780V104H852V33H780V-72H685ZM557 100Q569 101 580 102Q590 103 601 103T623
104H687V200Q687 211 687 225T689 251Q690 265 692 278H690Q684 264 677 251Q671 240 663 227T647 203L621 169Q612 157 601 146T580 124Q569 113 557 102V100Z" />
<glyph unicode="&#xbd;" glyph-name="onehalf" horiz-adv-x="871" d="M385 622L289 610V669L428 723H483V282H385V622ZM627 742H722L224 -42H129L627 742ZM564 -5L661 86Q706 128 730 161T755 231V238Q755 273 734 286T674 299Q642 299 617 293T571 278V349Q595
360 626 368T703 377Q774 377 816 346T858 250V242Q858 213 850 189T827 144T790 101T740 58L671 4V2H866V-72H564V-5Z" />
<glyph unicode="&#xbe;" glyph-name="threequarters" horiz-adv-x="893" d="M397 274Q350 274 319 282T266 301V371Q289 363 316 357T370 351Q468 351 468 413Q468 445 449 459T389 473H337V544H383Q422 544 439 558T457 602Q457 632 438 643T379 654Q349 654
326 650T283 639V709Q332 731 409 731Q475 731 514 703T554 620Q554 581 532 554T459 516V513Q517 505 543 480T569 406Q569 344 524 309T397 274ZM661 742H756L258 -42H163L661 742ZM707 -72V33H504V100L714 369H802V104H874V33H802V-72H707ZM579 100Q591 101
602 102Q612 103 623 103T645 104H709V200Q709 211 709 225T711 251Q712 265 714 278H712Q706 264 699 251Q693 240 685 227T669 203L643 169Q634 157 623 146T602 124Q591 113 579 102V100Z" />
<glyph unicode="&#xbf;" glyph-name="questiondown" horiz-adv-x="447" d="M325 320Q325 293 319 272T301 233T271 198T228 161Q197 135 183 113T168 53Q168 3 197 -15T282 -33Q326 -33 355 -27T415 -11V-102Q379 -119 340 -127T247 -136Q203 -136 165 -127T100
-96T56 -40T40 43Q40 76 45 99T61 142T92 181T138 222Q158 238 172 250T195 274T209 299T214 331V363H325V320ZM337 471H202V597H337V471Z" />
<glyph unicode="&#xc0;" glyph-name="Agrave" horiz-adv-x="640" d="M257 721H384L624 0H498L443 172H180L126 0H13L257 721ZM211 270H411L375 385Q362 423 352 468T333 551Q323 596 315 640H311Q303 596 292 551Q283 513 272 468T248 385L211 270ZM175 927H304L377
777H273L175 927Z" />
<glyph unicode="&#xc1;" glyph-name="Aacute" horiz-adv-x="640" d="M257 721H384L624 0H498L443 172H180L126 0H13L257 721ZM211 270H411L375 385Q362 423 352 468T333 551Q323 596 315 640H311Q303 596 292 551Q283 513 272 468T248 385L211 270ZM368 777H264L337
927H466L368 777Z" />
<glyph unicode="&#xc2;" glyph-name="Acircumflex" horiz-adv-x="640" d="M257 721H384L624 0H498L443 172H180L126 0H13L257 721ZM211 270H411L375 385Q362 423 352 468T333 551Q323 596 315 640H311Q303 596 292 551Q283 513 272 468T248 385L211 270ZM268 922H374L498
777H405L320 839L237 777H144L268 922Z" />
<glyph unicode="&#xc3;" glyph-name="Atilde" horiz-adv-x="640" d="M257 721H384L624 0H498L443 172H180L126 0H13L257 721ZM211 270H411L375 385Q362 423 352 468T333 551Q323 596 315 640H311Q303 596 292 551Q283 513 272 468T248 385L211 270ZM144 777Q151
843 182 878T254 914Q274 914 292 908T326 894T356 880T384 874Q402 874 412 886T425 916H495Q488 850 457 815T385 779Q365 779 347 785T313 798T283 812T255 818Q237 818 227 806T214 777H144V777Z" />
<glyph unicode="&#xc4;" glyph-name="Adieresis" horiz-adv-x="640" d="M257 721H384L624 0H498L443 172H180L126 0H13L257 721ZM211 270H411L375 385Q362 423 352 468T333 551Q323 596 315 640H311Q303 596 292 551Q283 513 272 468T248 385L211 270ZM369 893H486V782H369V893ZM154
893H271V782H154V893Z" />
<glyph unicode="&#xc5;" glyph-name="Aring" horiz-adv-x="640" d="M257 721H384L624 0H498L443 172H180L126 0H13L257 721ZM211 270H411L375 385Q362 423 352 468T333 551Q323 596 315 640H311Q303 596 292 551Q283 513 272 468T248 385L211 270ZM321 1019Q296
1019 274 1028T236 1052T211 1087T202 1132Q202 1155 211 1175T236 1211T274 1236T321 1245Q346 1245 368 1236T406 1212T431 1176T440 1132Q440 1108 431 1088T406 1052T368 1028T321 1019ZM321 1074Q346 1074 361 1090T377 1132Q377 1158 362 1174T321 1190Q296
1190 281 1174T265 1132Q265 1106 280 1090T321 1074Z" />
<glyph unicode="&#xc6;" glyph-name="AE" horiz-adv-x="935" d="M377 721H870V619H561V421H800V320H561V102H876V0H439V176H217L129 0H3L377 721ZM266 274H439V387Q439 424 439 468T441 552Q442 598 444 643H440Q422 601 404 560Q388 525 369 484T333 407L266 274Z" />
<glyph unicode="&#xc7;" glyph-name="Ccedilla" horiz-adv-x="594" d="M229 -190Q264 -186 286 -181T320 -170T336 -157T340 -140Q340 -123 325 -116T261 -107V-2Q160 22 105 103T49 329V394Q49 488 73 553T141 658T243 715T370 733Q428 733 470 723T545 696V595Q504
611 466 619T377 628Q331 628 295 617T232 580T192 512T178 410V333Q178 215 223 154T379 93Q440 93 480 105T552 133V32Q516 12 468 0T356 -12H337V-52Q391 -57 414 -78T437 -137Q437 -158 429 -177T397 -210T334 -235T229 -249V-190Z" />
<glyph unicode="&#xc8;" glyph-name="Egrave" horiz-adv-x="581" d="M80 721H516V619H202V421H446V320H202V102H522V0H80V721ZM159 927H288L361 777H257L159 927Z" />
<glyph unicode="&#xc9;" glyph-name="Eacute" horiz-adv-x="581" d="M80 721H516V619H202V421H446V320H202V102H522V0H80V721ZM357 777H253L326 927H455L357 777Z" />
<glyph unicode="&#xca;" glyph-name="Ecircumflex" horiz-adv-x="581" d="M80 721H516V619H202V421H446V320H202V102H522V0H80V721ZM253 922H359L483 777H390L305 839L222 777H129L253 922Z" />
<glyph unicode="&#xcb;" glyph-name="Edieresis" horiz-adv-x="581" d="M80 721H516V619H202V421H446V320H202V102H522V0H80V721ZM354 893H471V782H354V893ZM139 893H256V782H139V893Z" />
<glyph unicode="&#xcc;" glyph-name="Igrave" horiz-adv-x="285" d="M81 721H204V0H81V721ZM251 927H380L453 777H349L251 927Z" />
<glyph unicode="&#xcd;" glyph-name="Iacute" horiz-adv-x="285" d="M81 721H204V0H81V721ZM451 777H347L420 927H549L451 777Z" />
<glyph unicode="&#xce;" glyph-name="Icircumflex" horiz-adv-x="285" d="M81 721H204V0H81V721ZM346 922H452L576 777H483L398 839L315 777H222L346 922Z" />
<glyph unicode="&#xcf;" glyph-name="Idieresis" horiz-adv-x="285" d="M185 893H302V782H185V893ZM-18 893H99V782H-18V893ZM81 721H204V0H81V721Z" />
<glyph unicode="&#xd0;" glyph-name="Eth" horiz-adv-x="687" d="M80 311H12V412H80V721H313Q473 721 555 644T638 395V343Q638 174 560 87T315 0H80V311ZM315 102Q367 102 404 114T464 153T498 223T509 330V396Q509 462 496 505T458 574T394 609T305 619H203V412H378V311H203V102H315Z"
/>
<glyph unicode="&#xd1;" glyph-name="Ntilde" horiz-adv-x="704" d="M80 721H218L399 407Q420 370 441 328T480 249Q500 206 519 164H522Q519 208 517 253Q515 291 514 335T512 419V721H624V0H503L304 349Q283 386 262 429T223 509Q203 552 184 595H180Q183 550
186 504Q188 465 190 420T192 337V0H80V721ZM189 777Q196 843 227 878T299 914Q319 914 337 908T371 894T401 880T429 874Q447 874 457 886T470 916H540Q533 850 502 815T430 779Q410 779 392 785T358 798T328 812T300 818Q282 818 272 806T259 777H189V777Z" />
<glyph unicode="&#xd2;" glyph-name="Ograve" horiz-adv-x="708" d="M352 -12Q284 -12 228 8T132 71T71 177T49 327V393Q49 477 71 540T134 646T231 711T356 733Q424 733 480 713T575 650T637 544T659 393V327Q659 243 637 180T574 74T477 10T352 -12ZM356 86Q445
86 487 145T530 313V392Q530 513 490 573T352 634Q263 634 221 576T178 409V330Q178 208 219 147T356 86ZM205 927H334L407 777H303L205 927Z" />
<glyph unicode="&#xd3;" glyph-name="Oacute" horiz-adv-x="708" d="M352 -12Q284 -12 228 8T132 71T71 177T49 327V393Q49 477 71 540T134 646T231 711T356 733Q424 733 480 713T575 650T637 544T659 393V327Q659 243 637 180T574 74T477 10T352 -12ZM356 86Q445
86 487 145T530 313V392Q530 513 490 573T352 634Q263 634 221 576T178 409V330Q178 208 219 147T356 86ZM404 777H300L373 927H502L404 777Z" />
<glyph unicode="&#xd4;" glyph-name="Ocircumflex" horiz-adv-x="708" d="M352 -12Q284 -12 228 8T132 71T71 177T49 327V393Q49 477 71 540T134 646T231 711T356 733Q424 733 480 713T575 650T637 544T659 393V327Q659 243 637 180T574 74T477 10T352 -12ZM356
86Q445 86 487 145T530 313V392Q530 513 490 573T352 634Q263 634 221 576T178 409V330Q178 208 219 147T356 86ZM301 922H407L531 777H438L353 839L270 777H177L301 922Z" />
<glyph unicode="&#xd5;" glyph-name="Otilde" horiz-adv-x="708" d="M352 -12Q284 -12 228 8T132 71T71 177T49 327V393Q49 477 71 540T134 646T231 711T356 733Q424 733 480 713T575 650T637 544T659 393V327Q659 243 637 180T574 74T477 10T352 -12ZM356 86Q445
86 487 145T530 313V392Q530 513 490 573T352 634Q263 634 221 576T178 409V330Q178 208 219 147T356 86ZM179 777Q186 843 217 878T289 914Q309 914 327 908T361 894T391 880T419 874Q437 874 447 886T460 916H530Q523 850 492 815T420 779Q400 779 382 785T348
798T318 812T290 818Q272 818 262 806T249 777H179V777Z" />
<glyph unicode="&#xd6;" glyph-name="Odieresis" horiz-adv-x="708" d="M352 -12Q284 -12 228 8T132 71T71 177T49 327V393Q49 477 71 540T134 646T231 711T356 733Q424 733 480 713T575 650T637 544T659 393V327Q659 243 637 180T574 74T477 10T352 -12ZM356
86Q445 86 487 145T530 313V392Q530 513 490 573T352 634Q263 634 221 576T178 409V330Q178 208 219 147T356 86ZM403 893H520V782H403V893ZM188 893H305V782H188V893Z" />
<glyph unicode="&#xd7;" glyph-name="multiply" horiz-adv-x="598" d="M70 162L226 323L70 484L144 557L299 397L454 557L528 484L371 323L528 162L454 89L299 248L144 89L70 162Z" />
<glyph unicode="&#xd8;" glyph-name="Oslash" horiz-adv-x="708" d="M352 -12Q257 -12 190 26L133 -62H28L122 82Q87 124 68 185T49 327V393Q49 477 71 540T134 646T231 711T356 733Q451 733 521 692L567 762H671L588 635Q622 593 640 533T659 393V327Q659 243
637 180T574 74T477 10T352 -12ZM178 330Q178 248 196 194L462 602Q421 634 352 634Q263 634 221 576T178 409V330ZM356 86Q445 86 487 145T530 313V392Q530 470 514 521L249 116Q289 86 356 86Z" />
<glyph unicode="&#xd9;" glyph-name="Ugrave" horiz-adv-x="692" d="M349 -14Q215 -14 146 48T76 238V721H199V244Q199 198 209 167T238 118T286 92T353 84Q391 84 419 91T466 117T494 167T504 245V721H616V240Q616 109 550 48T349 -14ZM210 927H339L412 777H308L210
927Z" />
<glyph unicode="&#xda;" glyph-name="Uacute" horiz-adv-x="692" d="M349 -14Q215 -14 146 48T76 238V721H199V244Q199 198 209 167T238 118T286 92T353 84Q391 84 419 91T466 117T494 167T504 245V721H616V240Q616 109 550 48T349 -14ZM396 777H292L365 927H494L396
777Z" />
<glyph unicode="&#xdb;" glyph-name="Ucircumflex" horiz-adv-x="692" d="M349 -14Q215 -14 146 48T76 238V721H199V244Q199 198 209 167T238 118T286 92T353 84Q391 84 419 91T466 117T494 167T504 245V721H616V240Q616 109 550 48T349 -14ZM296 922H402L526
777H433L348 839L265 777H172L296 922Z" />
<glyph unicode="&#xdc;" glyph-name="Udieresis" horiz-adv-x="692" d="M349 -14Q215 -14 146 48T76 238V721H199V244Q199 198 209 167T238 118T286 92T353 84Q391 84 419 91T466 117T494 167T504 245V721H616V240Q616 109 550 48T349 -14ZM398 893H515V782H398V893ZM183
893H300V782H183V893Z" />
<glyph unicode="&#xdd;" glyph-name="Yacute" horiz-adv-x="588" d="M232 280L5 721H134L213 561Q228 531 243 494T270 425Q284 387 298 350H301Q314 387 328 425Q340 457 354 494T384 561L461 721H581L355 280V0H232V280ZM348 777H244L317 927H446L348 777Z" />
<glyph unicode="&#xde;" glyph-name="Thorn" horiz-adv-x="588" d="M80 721H203V589H317Q379 589 424 574T498 530T541 463T555 378Q555 276 495 217T325 158H203V0H80V721ZM301 255Q372 255 400 284T428 370Q428 434 401 461T304 489H203V255H301Z" />
<glyph unicode="&#xdf;" glyph-name="germandbls" horiz-adv-x="556" d="M309 -8Q285 -8 270 -5T243 2V87Q252 84 266 83T293 81Q345 81 371 110T398 202Q398 276 363 318T256 378V471Q319 482 346 511T374 594Q374 639 351 662T283 685Q237 685 211 651T184 552V0H64V552Q64
609 81 651T127 722T197 764T286 778Q331 778 368 767T433 733T475 679T490 605Q490 568 479 540T447 490T400 455T339 431V426Q429 398 475 344T522 203Q522 104 471 48T309 -8Z" />
<glyph unicode="&#xe0;" glyph-name="agrave" horiz-adv-x="501" d="M192 -10Q120 -10 76 28T32 145Q32 220 76 257T199 305L319 321V362Q319 388 313 405T294 431T258 445T202 449Q164 449 131 444T73 434V521Q146 551 249 551Q340 551 389 513T439 389V0H340L330
54H324Q305 28 274 9T192 -10ZM229 77Q257 77 280 85T319 108V245L226 236Q152 229 152 151Q152 112 173 95T229 77ZM89 787H218L311 617H207L89 787Z" />
<glyph unicode="&#xe1;" glyph-name="aacute" horiz-adv-x="501" d="M192 -10Q120 -10 76 28T32 145Q32 220 76 257T199 305L319 321V362Q319 388 313 405T294 431T258 445T202 449Q164 449 131 444T73 434V521Q146 551 249 551Q340 551 389 513T439 389V0H340L330
54H324Q305 28 274 9T192 -10ZM229 77Q257 77 280 85T319 108V245L226 236Q152 229 152 151Q152 112 173 95T229 77ZM527 787H656L538 617H434L527 787Z" />
<glyph unicode="&#xe2;" glyph-name="acircumflex" horiz-adv-x="501" d="M192 -10Q120 -10 76 28T32 145Q32 220 76 257T199 305L319 321V362Q319 388 313 405T294 431T258 445T202 449Q164 449 131 444T73 434V521Q146 551 249 551Q340 551 389 513T439 389V0H340L330
54H324Q305 28 274 9T192 -10ZM229 77Q257 77 280 85T319 108V245L226 236Q152 229 152 151Q152 112 173 95T229 77ZM452 802H558L682 617H589L504 719L421 617H328L452 802Z" />
<glyph unicode="&#xe3;" glyph-name="atilde" horiz-adv-x="501" d="M192 -10Q120 -10 76 28T32 145Q32 220 76 257T199 305L319 321V362Q319 388 313 405T294 431T258 445T202 449Q164 449 131 444T73 434V521Q146 551 249 551Q340 551 389 513T439 389V0H340L330
54H324Q305 28 274 9T192 -10ZM229 77Q257 77 280 85T319 108V245L226 236Q152 229 152 151Q152 112 173 95T229 77ZM329 627Q336 690 367 723T438 757Q458 757 475 751T508 737T538 723T565 717Q583 717 592 729T605 759H675Q668 696 638 663T566 629Q546 629
529 635T496 648T466 662T439 668Q421 668 412 656T399 627H329V627Z" />
<glyph unicode="&#xe4;" glyph-name="adieresis" horiz-adv-x="501" d="M192 -10Q120 -10 76 28T32 145Q32 220 76 257T199 305L319 321V362Q319 388 313 405T294 431T258 445T202 449Q164 449 131 444T73 434V521Q146 551 249 551Q340 551 389 513T439 389V0H340L330
54H324Q305 28 274 9T192 -10ZM229 77Q257 77 280 85T319 108V245L226 236Q152 229 152 151Q152 112 173 95T229 77ZM546 748H663V637H546V748ZM341 748H458V637H341V748Z" />
<glyph unicode="&#xe5;" glyph-name="aring" horiz-adv-x="501" d="M192 -10Q120 -10 76 28T32 145Q32 220 76 257T199 305L319 321V362Q319 388 313 405T294 431T258 445T202 449Q164 449 131 444T73 434V521Q146 551 249 551Q340 551 389 513T439 389V0H340L330
54H324Q305 28 274 9T192 -10ZM229 77Q257 77 280 85T319 108V245L226 236Q152 229 152 151Q152 112 173 95T229 77ZM504 610Q479 610 457 619T419 643T394 678T385 723Q385 746 394 766T419 802T457 827T504 836Q529 836 551 827T589 803T614 767T623 723Q623
699 614 679T589 643T551 619T504 610ZM504 665Q529 665 544 681T560 723Q560 749 545 765T504 781Q479 781 464 765T448 723Q448 697 463 681T504 665Z" />
<glyph unicode="&#xe6;" glyph-name="ae" horiz-adv-x="826" d="M207 -10Q122 -10 77 28T32 145Q32 220 76 256T199 303L328 319V362Q328 414 299 431T202 449Q164 449 131 444T73 434V521Q146 551 249 551Q367 551 405 484Q434 518 475 534T570 551Q688 551 740
490T792 302V237H451Q452 191 463 163T495 118T545 95T614 89Q667 89 703 99T775 127V40Q748 23 704 7T590 -10Q441 -10 377 75Q349 41 310 16T207 -10ZM348 129Q330 178 330 243L226 234Q187 230 170 210T152 151Q152 112 173 95T234 77Q266 77 293 90T348 129ZM569
461Q548 461 528 456T491 435T463 393T450 322H672Q672 362 666 388T646 431T614 454T569 461Z" />
<glyph unicode="&#xe7;" glyph-name="ccedilla" horiz-adv-x="470" d="M377 -137Q377 -158 369 -177T337 -210T274 -235T169 -249V-190Q204 -186 226 -181T260 -170T276 -157T280 -140Q280 -123 265 -116T201 -107V-1Q122 18 79 77T36 242V290Q36 359 55 408T108
489T189 536T293 551Q345 551 378 543T437 519V421Q422 427 408 432T377 442T343 448T301 450Q236 450 199 416T161 303V247Q161 203 170 173T197 125T244 98T309 90Q356 90 389 102T442 123V31Q417 14 380 2T286 -10H277V-52Q331 -57 354 -78T377 -137Z" />
<glyph unicode="&#xe8;" glyph-name="egrave" horiz-adv-x="529" d="M293 -10Q161 -10 99 55T36 245V294Q36 360 54 408T104 488T179 535T273 551Q391 551 443 490T495 302V235H160Q161 190 171 162T200 117T249 95T317 89Q370 89 406 99T478 127V40Q451 23 407
7T293 -10ZM272 461Q251 461 232 456T196 435T170 392T159 320H375Q375 401 349 431T272 461ZM106 787H235L328 617H224L106 787Z" />
<glyph unicode="&#xe9;" glyph-name="eacute" horiz-adv-x="529" d="M293 -10Q161 -10 99 55T36 245V294Q36 360 54 408T104 488T179 535T273 551Q391 551 443 490T495 302V235H160Q161 190 171 162T200 117T249 95T317 89Q370 89 406 99T478 127V40Q451 23 407
7T293 -10ZM272 461Q251 461 232 456T196 435T170 392T159 320H375Q375 401 349 431T272 461ZM306 787H435L317 617H213L306 787Z" />
<glyph unicode="&#xea;" glyph-name="ecircumflex" horiz-adv-x="529" d="M293 -10Q161 -10 99 55T36 245V294Q36 360 54 408T104 488T179 535T273 551Q391 551 443 490T495 302V235H160Q161 190 171 162T200 117T249 95T317 89Q370 89 406 99T478 127V40Q451
23 407 7T293 -10ZM272 461Q251 461 232 456T196 435T170 392T159 320H375Q375 401 349 431T272 461ZM215 802H321L445 617H352L267 719L184 617H91L215 802Z" />
<glyph unicode="&#xeb;" glyph-name="edieresis" horiz-adv-x="529" d="M293 -10Q161 -10 99 55T36 245V294Q36 360 54 408T104 488T179 535T273 551Q391 551 443 490T495 302V235H160Q161 190 171 162T200 117T249 95T317 89Q370 89 406 99T478 127V40Q451 23
407 7T293 -10ZM272 461Q251 461 232 456T196 435T170 392T159 320H375Q375 401 349 431T272 461ZM312 748H429V637H312V748ZM107 748H224V637H107V748Z" />
<glyph unicode="&#xec;" glyph-name="igrave" horiz-adv-x="246" d="M63 541H183V0H63V541ZM214 787H343L436 617H332L214 787Z" />
<glyph unicode="&#xed;" glyph-name="iacute" horiz-adv-x="246" d="M63 541H183V0H63V541ZM418 787H547L429 617H325L418 787Z" />
<glyph unicode="&#xee;" glyph-name="icircumflex" horiz-adv-x="246" d="M63 541H183V0H63V541ZM327 802H433L557 617H464L379 719L296 617H203L327 802Z" />
<glyph unicode="&#xef;" glyph-name="idieresis" horiz-adv-x="246" d="M155 748H272V637H155V748ZM-26 748H91V637H-26V748ZM63 541H183V0H63V541Z" />
<glyph unicode="&#xf0;" glyph-name="eth" horiz-adv-x="573" d="M379 667Q409 637 436 600T483 519T516 422T528 308V260Q528 191 510 141T458 57T380 7T280 -10Q157 -10 97 55T36 242V279Q36 342 52 390T96 470T164 518T251 534Q287 534 319 521T372 481H374Q357
521 332 558T275 629L127 576V651L220 685Q196 708 171 728T121 769H255Q270 758 286 747T319 721L452 769V693L379 667ZM282 83Q339 83 371 119T403 237V283Q403 319 401 350T393 403Q376 422 347 434T281 446Q222 446 192 409T161 288V241Q161 193 169 163T193
114T231 90T282 83Z" />
<glyph unicode="&#xf1;" glyph-name="ntilde" horiz-adv-x="567" d="M64 541H180V483H185Q217 513 261 532T355 551Q430 551 467 516T505 402V0H385V372Q385 413 368 430T299 448Q270 448 239 440T184 419V0H64V541ZM110 627Q117 690 148 723T219 757Q239 757
256 751T289 737T319 723T346 717Q364 717 373 729T386 759H456Q449 696 419 663T347 629Q327 629 310 635T277 648T247 662T220 668Q202 668 193 656T180 627H110V627Z" />
<glyph unicode="&#xf2;" glyph-name="ograve" horiz-adv-x="564" d="M283 -10Q166 -10 101 55T36 245V291Q36 355 55 403T107 485T185 534T284 551Q399 551 463 487T528 296V250Q528 185 510 137T459 56T381 7T283 -10ZM285 83Q342 83 372 119T403 240V295Q403
346 394 377T368 427T329 451T282 458Q225 458 193 421T161 300V244Q161 194 170 163T197 114T236 90T285 83ZM118 787H247L340 617H236L118 787Z" />
<glyph unicode="&#xf3;" glyph-name="oacute" horiz-adv-x="564" d="M283 -10Q166 -10 101 55T36 245V291Q36 355 55 403T107 485T185 534T284 551Q399 551 463 487T528 296V250Q528 185 510 137T459 56T381 7T283 -10ZM285 83Q342 83 372 119T403 240V295Q403
346 394 377T368 427T329 451T282 458Q225 458 193 421T161 300V244Q161 194 170 163T197 114T236 90T285 83ZM314 787H443L325 617H221L314 787Z" />
<glyph unicode="&#xf4;" glyph-name="ocircumflex" horiz-adv-x="564" d="M283 -10Q166 -10 101 55T36 245V291Q36 355 55 403T107 485T185 534T284 551Q399 551 463 487T528 296V250Q528 185 510 137T459 56T381 7T283 -10ZM285 83Q342 83 372 119T403 240V295Q403
346 394 377T368 427T329 451T282 458Q225 458 193 421T161 300V244Q161 194 170 163T197 114T236 90T285 83ZM229 802H335L459 617H366L281 719L198 617H105L229 802Z" />
<glyph unicode="&#xf5;" glyph-name="otilde" horiz-adv-x="564" d="M283 -10Q166 -10 101 55T36 245V291Q36 355 55 403T107 485T185 534T284 551Q399 551 463 487T528 296V250Q528 185 510 137T459 56T381 7T283 -10ZM285 83Q342 83 372 119T403 240V295Q403
346 394 377T368 427T329 451T282 458Q225 458 193 421T161 300V244Q161 194 170 163T197 114T236 90T285 83ZM109 627Q116 690 147 723T218 757Q238 757 255 751T288 737T318 723T345 717Q363 717 372 729T385 759H455Q448 696 418 663T346 629Q326 629 309 635T276
648T246 662T219 668Q201 668 192 656T179 627H109V627Z" />
<glyph unicode="&#xf6;" glyph-name="odieresis" horiz-adv-x="564" d="M283 -10Q166 -10 101 55T36 245V291Q36 355 55 403T107 485T185 534T284 551Q399 551 463 487T528 296V250Q528 185 510 137T459 56T381 7T283 -10ZM285 83Q342 83 372 119T403 240V295Q403
346 394 377T368 427T329 451T282 458Q225 458 193 421T161 300V244Q161 194 170 163T197 114T236 90T285 83ZM326 748H443V637H326V748ZM121 748H238V637H121V748Z" />
<glyph unicode="&#xf7;" glyph-name="divide" horiz-adv-x="583" d="M58 381H525V278H58V381ZM226 191H357V65H226V191ZM226 594H357V468H226V594Z" />
<glyph unicode="&#xf8;" glyph-name="oslash" horiz-adv-x="564" d="M283 -10Q217 -10 165 16L114 -62H18L100 63Q69 96 53 142T36 245V291Q36 355 55 403T107 485T185 534T284 551Q317 551 347 544T403 524L442 583H537L466 475Q495 442 511 397T528 296V250Q528
185 510 137T459 56T381 7T283 -10ZM157 244Q157 196 166 163L351 445Q336 454 319 458T282 462Q224 462 191 424T157 300V244ZM285 79Q343 79 375 116T408 240V295Q408 342 399 374L216 94Q231 86 248 83T285 79Z" />
<glyph unicode="&#xf9;" glyph-name="ugrave" horiz-adv-x="560" d="M218 -10Q141 -10 102 29T62 148V541H182V172Q182 127 198 108T263 88Q297 88 324 99T376 123V541H496V0H393L383 58H378Q344 29 306 10T218 -10ZM116 787H245L338 617H234L116 787Z" />
<glyph unicode="&#xfa;" glyph-name="uacute" horiz-adv-x="560" d="M218 -10Q141 -10 102 29T62 148V541H182V172Q182 127 198 108T263 88Q297 88 324 99T376 123V541H496V0H393L383 58H378Q344 29 306 10T218 -10ZM318 787H447L329 617H225L318 787Z" />
<glyph unicode="&#xfb;" glyph-name="ucircumflex" horiz-adv-x="560" d="M218 -10Q141 -10 102 29T62 148V541H182V172Q182 127 198 108T263 88Q297 88 324 99T376 123V541H496V0H393L383 58H378Q344 29 306 10T218 -10ZM229 802H335L459 617H366L281 719L198
617H105L229 802Z" />
<glyph unicode="&#xfc;" glyph-name="udieresis" horiz-adv-x="560" d="M218 -10Q141 -10 102 29T62 148V541H182V172Q182 127 198 108T263 88Q297 88 324 99T376 123V541H496V0H393L383 58H378Q344 29 306 10T218 -10ZM326 748H443V637H326V748ZM121 748H238V637H121V748Z"
/>
<glyph unicode="&#xfd;" glyph-name="yacute" horiz-adv-x="511" d="M110 -207Q89 -207 66 -203T30 -190V-105Q53 -110 83 -110Q119 -110 142 -94T180 -40L199 11L11 541H138L197 365Q211 323 222 277T242 192Q252 147 259 104H262Q270 147 280 192Q288 230 299
276T325 365L381 541H500L293 -59Q267 -136 225 -171T110 -207ZM297 787H426L308 617H204L297 787Z" />
<glyph unicode="&#xfe;" glyph-name="thorn" horiz-adv-x="578" d="M64 769H184V490H189Q209 513 247 532T336 551Q377 551 414 539T479 497T523 421T540 302V258Q540 186 524 135T478 52T406 5T311 -10Q264 -10 234 3T184 32V-203H64V769ZM289 81Q320 81 343
89T383 116T407 166T415 243V294Q415 340 408 370T385 419T347 444T294 451Q256 451 228 441T184 419V113Q199 101 227 91T289 81Z" />
<glyph unicode="&#xff;" glyph-name="ydieresis" horiz-adv-x="511" d="M110 -207Q89 -207 66 -203T30 -190V-105Q53 -110 83 -110Q119 -110 142 -94T180 -40L199 11L11 541H138L197 365Q211 323 222 277T242 192Q252 147 259 104H262Q270 147 280 192Q288 230
299 276T325 365L381 541H500L293 -59Q267 -136 225 -171T110 -207ZM307 748H424V637H307V748ZM102 748H219V637H102V748Z" />
<glyph unicode="&#x100;" glyph-name="Amacron" horiz-adv-x="640" d="M257 721H384L624 0H498L443 172H180L126 0H13L257 721ZM211 270H411L375 385Q362 423 352 468T333 551Q323 596 315 640H311Q303 596 292 551Q283 513 272 468T248 385L211 270ZM160 886H480V798H160V886Z"
/>
<glyph unicode="&#x101;" glyph-name="amacron" horiz-adv-x="501" d="M192 -10Q120 -10 76 28T32 145Q32 220 76 257T199 305L319 321V362Q319 388 313 405T294 431T258 445T202 449Q164 449 131 444T73 434V521Q146 551 249 551Q340 551 389 513T439 389V0H340L330
54H324Q305 28 274 9T192 -10ZM229 77Q257 77 280 85T319 108V245L226 236Q152 229 152 151Q152 112 173 95T229 77ZM358 736H645V644H358V736Z" />
<glyph unicode="&#x102;" glyph-name="Abreve" horiz-adv-x="640" d="M257 721H384L624 0H498L443 172H180L126 0H13L257 721ZM211 270H411L375 385Q362 423 352 468T333 551Q323 596 315 640H311Q303 596 292 551Q283 513 272 468T248 385L211 270ZM321 776Q253
776 210 816T162 922H248Q253 893 272 879T321 864Q350 864 369 878T394 922H480Q476 856 433 816T321 776Z" />
<glyph unicode="&#x103;" glyph-name="abreve" horiz-adv-x="501" d="M192 -10Q120 -10 76 28T32 145Q32 220 76 257T199 305L319 321V362Q319 388 313 405T294 431T258 445T202 449Q164 449 131 444T73 434V521Q146 551 249 551Q340 551 389 513T439 389V0H340L330
54H324Q305 28 274 9T192 -10ZM229 77Q257 77 280 85T319 108V245L226 236Q152 229 152 151Q152 112 173 95T229 77ZM503 617Q471 617 443 627T393 660T358 715T345 792H430Q434 750 453 730T503 709Q534 709 553 729T576 792H661Q661 748 649 715T614 660T564
628T503 617Z" />
<glyph unicode="&#x104;" glyph-name="Aogonek" horiz-adv-x="640" d="M443 172H180L126 0H13L257 721H384L622 5Q588 -21 573 -46T558 -100Q558 -140 601 -140Q615 -140 630 -137T651 -132V-198Q640 -204 619 -210T575 -217Q513 -217 485 -191T457 -120Q457 -85
470 -60T503 -15L443 172ZM211 270H411L375 385Q362 423 352 468T333 551Q323 596 315 640H311Q303 596 292 551Q283 513 272 468T248 385L211 270Z" />
<glyph unicode="&#x105;" glyph-name="aogonek" horiz-adv-x="501" d="M266 -120Q266 -77 289 -49T341 -4L330 54H324Q305 28 274 9T192 -10Q120 -10 76 28T32 145Q32 220 76 257T199 305L319 321V362Q319 388 313 405T294 431T258 445T202 449Q164 449 131 444T73
434V521Q146 551 249 551Q340 551 389 513T439 389V0Q400 -23 384 -47T367 -100Q367 -140 410 -140Q424 -140 439 -137T460 -132V-198Q449 -204 428 -210T384 -217Q322 -217 294 -191T266 -120ZM229 77Q257 77 280 85T319 108V245L226 236Q152 229 152 151Q152
112 173 95T229 77Z" />
<glyph unicode="&#x106;" glyph-name="Cacute" horiz-adv-x="594" d="M356 -12Q283 -12 226 8T130 71T70 177T49 329V394Q49 488 73 553T141 658T243 715T370 733Q428 733 470 723T545 696V595Q504 611 466 619T377 628Q331 628 295 617T232 580T192 512T178 410V333Q178
215 223 154T379 93Q440 93 480 105T552 133V32Q516 12 468 0T356 -12ZM391 777H287L360 927H489L391 777Z" />
<glyph unicode="&#x107;" glyph-name="cacute" horiz-adv-x="470" d="M286 -10Q168 -10 102 50T36 242V290Q36 359 55 408T108 489T189 536T293 551Q345 551 378 543T437 519V421Q422 427 408 432T377 442T343 448T301 450Q236 450 199 416T161 303V247Q161 203
170 173T197 125T244 98T309 90Q356 90 389 102T442 123V31Q417 14 380 2T286 -10ZM308 787H437L319 617H215L308 787Z" />
<glyph unicode="&#x108;" glyph-name="Ccircumflex" horiz-adv-x="594" d="M356 -12Q283 -12 226 8T130 71T70 177T49 329V394Q49 488 73 553T141 658T243 715T370 733Q428 733 470 723T545 696V595Q504 611 466 619T377 628Q331 628 295 617T232 580T192 512T178
410V333Q178 215 223 154T379 93Q440 93 480 105T552 133V32Q516 12 468 0T356 -12ZM290 922H396L520 777H427L342 839L259 777H166L290 922Z" />
<glyph unicode="&#x109;" glyph-name="ccircumflex" horiz-adv-x="470" d="M286 -10Q168 -10 102 50T36 242V290Q36 359 55 408T108 489T189 536T293 551Q345 551 378 543T437 519V421Q422 427 408 432T377 442T343 448T301 450Q236 450 199 416T161 303V247Q161
203 170 173T197 125T244 98T309 90Q356 90 389 102T442 123V31Q417 14 380 2T286 -10ZM218 802H324L448 617H355L270 719L187 617H94L218 802Z" />
<glyph unicode="&#x10a;" glyph-name="Cdotaccent" horiz-adv-x="594" d="M356 -12Q283 -12 226 8T130 71T70 177T49 329V394Q49 488 73 553T141 658T243 715T370 733Q428 733 470 723T545 696V595Q504 611 466 619T377 628Q331 628 295 617T232 580T192 512T178
410V333Q178 215 223 154T379 93Q440 93 480 105T552 133V32Q516 12 468 0T356 -12ZM281 901H405V786H281V901Z" />
<glyph unicode="&#x10b;" glyph-name="cdotaccent" horiz-adv-x="470" d="M286 -10Q168 -10 102 50T36 242V290Q36 359 55 408T108 489T189 536T293 551Q345 551 378 543T437 519V421Q422 427 408 432T377 442T343 448T301 450Q236 450 199 416T161 303V247Q161
203 170 173T197 125T244 98T309 90Q356 90 389 102T442 123V31Q417 14 380 2T286 -10ZM209 749H333V634H209V749Z" />
<glyph unicode="&#x10c;" glyph-name="Ccaron" horiz-adv-x="594" d="M356 -12Q283 -12 226 8T130 71T70 177T49 329V394Q49 488 73 553T141 658T243 715T370 733Q428 733 470 723T545 696V595Q504 611 466 619T377 628Q331 628 295 617T232 580T192 512T178 410V333Q178
215 223 154T379 93Q440 93 480 105T552 133V32Q516 12 468 0T356 -12ZM398 777H292L168 922H261L344 860L429 922H522L398 777Z" />
<glyph unicode="&#x10d;" glyph-name="ccaron" horiz-adv-x="470" d="M286 -10Q168 -10 102 50T36 242V290Q36 359 55 408T108 489T189 536T293 551Q345 551 378 543T437 519V421Q422 427 408 432T377 442T343 448T301 450Q236 450 199 416T161 303V247Q161 203
170 173T197 125T244 98T309 90Q356 90 389 102T442 123V31Q417 14 380 2T286 -10ZM327 617H221L100 802H190L275 700L358 802H448L327 617Z" />
<glyph unicode="&#x10e;" glyph-name="Dcaron" horiz-adv-x="687" d="M80 721H313Q473 721 555 644T638 395V343Q638 174 560 87T315 0H80V721ZM315 102Q367 102 404 114T464 153T498 223T509 330V396Q509 462 496 505T458 574T394 609T305 619H203V102H315ZM382
777H276L152 922H245L328 860L413 922H506L382 777Z" />
<glyph unicode="&#x10f;" glyph-name="dcaron" horiz-adv-x="578" d="M248 -10Q209 -10 171 2T104 44T56 121T38 242V285Q38 358 55 409T102 491T175 537T269 551Q315 551 345 539T394 510V769H514V0H411L401 54H396Q371 25 335 8T248 -10ZM288 84Q324 84 351
96T394 123V429Q380 440 352 448T291 456Q260 456 236 449T196 424T171 376T162 298V246Q162 198 170 167T195 117T234 92T288 84ZM569 769H676L645 595H565L569 769Z" />
<glyph unicode="&#x110;" glyph-name="Dcroat" horiz-adv-x="687" d="M80 311H12V412H80V721H313Q473 721 555 644T638 395V343Q638 174 560 87T315 0H80V311ZM315 102Q367 102 404 114T464 153T498 223T509 330V396Q509 462 496 505T458 574T394 609T305 619H203V412H378V311H203V102H315Z"
/>
<glyph unicode="&#x111;" glyph-name="dcroat" horiz-adv-x="578" d="M236 705H583V623H236V705ZM248 -10Q209 -10 171 2T104 44T56 121T38 242V285Q38 358 55 409T102 491T175 537T269 551Q315 551 345 539T394 510V769H514V0H411L401 54H396Q371 25 335 8T248
-10ZM288 84Q324 84 351 96T394 123V429Q380 440 352 448T291 456Q260 456 236 449T196 424T171 376T162 298V246Q162 198 170 167T195 117T234 92T288 84Z" />
<glyph unicode="&#x112;" glyph-name="Emacron" horiz-adv-x="581" d="M80 721H516V619H202V421H446V320H202V102H522V0H80V721ZM144 886H464V798H144V886Z" />
<glyph unicode="&#x113;" glyph-name="emacron" horiz-adv-x="529" d="M293 -10Q161 -10 99 55T36 245V294Q36 360 54 408T104 488T179 535T273 551Q391 551 443 490T495 302V235H160Q161 190 171 162T200 117T249 95T317 89Q370 89 406 99T478 127V40Q451 23
407 7T293 -10ZM272 461Q251 461 232 456T196 435T170 392T159 320H375Q375 401 349 431T272 461ZM124 736H411V644H124V736Z" />
<glyph unicode="&#x114;" glyph-name="Ebreve" horiz-adv-x="581" d="M80 721H516V619H202V421H446V320H202V102H522V0H80V721ZM305 776Q237 776 194 816T146 922H232Q237 893 256 879T305 864Q334 864 353 878T378 922H464Q460 856 417 816T305 776Z" />
<glyph unicode="&#x115;" glyph-name="ebreve" horiz-adv-x="529" d="M293 -10Q161 -10 99 55T36 245V294Q36 360 54 408T104 488T179 535T273 551Q391 551 443 490T495 302V235H160Q161 190 171 162T200 117T249 95T317 89Q370 89 406 99T478 127V40Q451 23 407
7T293 -10ZM272 461Q251 461 232 456T196 435T170 392T159 320H375Q375 401 349 431T272 461ZM269 617Q237 617 209 627T159 660T124 715T111 792H196Q200 750 219 730T269 709Q300 709 319 729T342 792H427Q427 748 415 715T380 660T330 628T269 617Z" />
<glyph unicode="&#x116;" glyph-name="Edotaccent" horiz-adv-x="581" d="M80 721H516V619H202V421H446V320H202V102H522V0H80V721ZM243 901H367V786H243V901Z" />
<glyph unicode="&#x117;" glyph-name="edotaccent" horiz-adv-x="529" d="M293 -10Q161 -10 99 55T36 245V294Q36 360 54 408T104 488T179 535T273 551Q391 551 443 490T495 302V235H160Q161 190 171 162T200 117T249 95T317 89Q370 89 406 99T478 127V40Q451
23 407 7T293 -10ZM272 461Q251 461 232 456T196 435T170 392T159 320H375Q375 401 349 431T272 461ZM206 749H330V634H206V749Z" />
<glyph unicode="&#x118;" glyph-name="Eogonek" horiz-adv-x="581" d="M80 721H516V619H202V421H446V320H202V102H522V0H80V721ZM413 -217Q351 -217 323 -191T295 -120Q295 -99 303 -81T325 -48T355 -20T387 0H454Q423 -26 410 -50T396 -100Q396 -140 439 -140Q453
-140 468 -137T489 -132V-198Q478 -204 457 -210T413 -217Z" />
<glyph unicode="&#x119;" glyph-name="eogonek" horiz-adv-x="529" d="M356 -217Q294 -217 266 -191T238 -120Q238 -84 261 -56T314 -10H293Q161 -10 99 55T36 245V294Q36 360 54 408T104 488T179 535T273 551Q391 551 443 490T495 302V235H160Q161 190 171 162T200
117T249 95T317 89Q370 89 406 99T478 127V40Q461 29 442 20T405 2Q372 -15 356 -44T339 -100Q339 -140 382 -140Q396 -140 411 -137T432 -132V-198Q421 -204 400 -210T356 -217ZM272 461Q251 461 232 456T196 435T170 392T159 320H375Q375 401 349 431T272 461Z"
/>
<glyph unicode="&#x11a;" glyph-name="Ecaron" horiz-adv-x="581" d="M80 721H516V619H202V421H446V320H202V102H522V0H80V721ZM360 777H254L130 922H223L306 860L391 922H484L360 777Z" />
<glyph unicode="&#x11b;" glyph-name="ecaron" horiz-adv-x="529" d="M293 -10Q161 -10 99 55T36 245V294Q36 360 54 408T104 488T179 535T273 551Q391 551 443 490T495 302V235H160Q161 190 171 162T200 117T249 95T317 89Q370 89 406 99T478 127V40Q451 23 407
7T293 -10ZM272 461Q251 461 232 456T196 435T170 392T159 320H375Q375 401 349 431T272 461ZM321 617H215L94 802H184L269 700L352 802H442L321 617Z" />
<glyph unicode="&#x11c;" glyph-name="Gcircumflex" horiz-adv-x="675" d="M379 -12Q302 -12 241 6T138 65T72 170T49 325V387Q49 486 76 552T148 659T253 716T379 733Q451 733 498 720T577 691V588Q561 594 543 601T501 614T449 624T383 628Q323 628 283 611T220
562T188 490T178 402V328Q178 276 186 232T216 157T277 107T379 89Q409 89 438 94T487 107V269H358V367H606V31Q565 14 507 1T379 -12ZM298 922H404L528 777H435L350 839L267 777H174L298 922Z" />
<glyph unicode="&#x11d;" glyph-name="gcircumflex" horiz-adv-x="578" d="M266 -214Q208 -214 155 -203T71 -174V-86Q83 -91 101 -96T141 -105T189 -113T239 -116Q319 -116 356 -89T394 7V60H389Q365 36 331 23T245 10Q207 10 170 22T103 62T56 137T38 253V285Q38
358 55 409T102 491T175 537T269 551Q315 551 347 538T399 510H404L413 541H514V-5Q514 -62 498 -102T450 -167T372 -203T266 -214ZM286 103Q327 103 353 115T394 139V429Q380 440 352 448T291 456Q260 456 236 449T196 424T171 376T162 298V259Q162 212 171 182T196
134T235 110T286 103ZM231 802H337L461 617H368L283 719L200 617H107L231 802Z" />
<glyph unicode="&#x11e;" glyph-name="Gbreve" horiz-adv-x="675" d="M379 -12Q302 -12 241 6T138 65T72 170T49 325V387Q49 486 76 552T148 659T253 716T379 733Q451 733 498 720T577 691V588Q561 594 543 601T501 614T449 624T383 628Q323 628 283 611T220 562T188
490T178 402V328Q178 276 186 232T216 157T277 107T379 89Q409 89 438 94T487 107V269H358V367H606V31Q565 14 507 1T379 -12ZM352 776Q284 776 241 816T193 922H279Q284 893 303 879T352 864Q381 864 400 878T425 922H511Q507 856 464 816T352 776Z" />
<glyph unicode="&#x11f;" glyph-name="gbreve" horiz-adv-x="578" d="M266 -214Q208 -214 155 -203T71 -174V-86Q83 -91 101 -96T141 -105T189 -113T239 -116Q319 -116 356 -89T394 7V60H389Q365 36 331 23T245 10Q207 10 170 22T103 62T56 137T38 253V285Q38
358 55 409T102 491T175 537T269 551Q315 551 347 538T399 510H404L413 541H514V-5Q514 -62 498 -102T450 -167T372 -203T266 -214ZM286 103Q327 103 353 115T394 139V429Q380 440 352 448T291 456Q260 456 236 449T196 424T171 376T162 298V259Q162 212 171 182T196
134T235 110T286 103ZM285 617Q253 617 225 627T175 660T140 715T127 792H212Q216 750 235 730T285 709Q316 709 335 729T358 792H443Q443 748 431 715T396 660T346 628T285 617Z" />
<glyph unicode="&#x120;" glyph-name="Gdotaccent" horiz-adv-x="675" d="M379 -12Q302 -12 241 6T138 65T72 170T49 325V387Q49 486 76 552T148 659T253 716T379 733Q451 733 498 720T577 691V588Q561 594 543 601T501 614T449 624T383 628Q323 628 283 611T220
562T188 490T178 402V328Q178 276 186 232T216 157T277 107T379 89Q409 89 438 94T487 107V269H358V367H606V31Q565 14 507 1T379 -12ZM289 901H413V786H289V901Z" />
<glyph unicode="&#x121;" glyph-name="gdotaccent" horiz-adv-x="578" d="M266 -214Q208 -214 155 -203T71 -174V-86Q83 -91 101 -96T141 -105T189 -113T239 -116Q319 -116 356 -89T394 7V60H389Q365 36 331 23T245 10Q207 10 170 22T103 62T56 137T38 253V285Q38
358 55 409T102 491T175 537T269 551Q315 551 347 538T399 510H404L413 541H514V-5Q514 -62 498 -102T450 -167T372 -203T266 -214ZM286 103Q327 103 353 115T394 139V429Q380 440 352 448T291 456Q260 456 236 449T196 424T171 376T162 298V259Q162 212 171 182T196
134T235 110T286 103ZM222 749H346V634H222V749Z" />
<glyph unicode="&#x122;" glyph-name="Gcommaaccent" horiz-adv-x="675" d="M379 -12Q302 -12 241 6T138 65T72 170T49 325V387Q49 486 76 552T148 659T253 716T379 733Q451 733 498 720T577 691V588Q561 594 543 601T501 614T449 624T383 628Q323 628 283 611T220
562T188 490T178 402V328Q178 276 186 232T216 157T277 107T379 89Q409 89 438 94T487 107V269H358V367H606V31Q565 14 507 1T379 -12ZM296 -67H412L373 -242H291L296 -67Z" />
<glyph unicode="&#x123;" glyph-name="gcommaaccent" horiz-adv-x="578" d="M266 -214Q208 -214 155 -203T71 -174V-86Q83 -91 101 -96T141 -105T189 -113T239 -116Q319 -116 356 -89T394 7V60H389Q365 36 331 23T245 10Q207 10 170 22T103 62T56 137T38 253V285Q38
358 55 409T102 491T175 537T269 551Q315 551 347 538T399 510H404L413 541H514V-5Q514 -62 498 -102T450 -167T372 -203T266 -214ZM286 103Q327 103 353 115T394 139V429Q380 440 352 448T291 456Q260 456 236 449T196 424T171 376T162 298V259Q162 212 171 182T196
134T235 110T286 103ZM339 617H223L262 792H344L339 617Z" />
<glyph unicode="&#x124;" glyph-name="Hcircumflex" horiz-adv-x="708" d="M80 721H203V423H505V721H628V0H505V320H203V0H80V721ZM301 922H407L531 777H438L353 839L270 777H177L301 922Z" />
<glyph unicode="&#x125;" glyph-name="hcircumflex" horiz-adv-x="567" d="M64 769H184V486H189Q218 514 262 532T355 551Q430 551 467 516T505 402V0H385V372Q385 413 368 430T299 448Q270 448 239 440T184 419V0H64V769ZM241 972H347L471 827H378L293 889L210
827H117L241 972Z" />
<glyph unicode="&#x126;" glyph-name="Hbar" horiz-adv-x="728" d="M745 526H-17V618H745V526ZM90 721H213V423H515V721H638V0H515V320H213V0H90V721Z" />
<glyph unicode="&#x127;" glyph-name="hbar" horiz-adv-x="567" d="M342 623H-5V705H342V623ZM64 769H184V486H189Q218 514 262 532T355 551Q430 551 467 516T505 402V0H385V372Q385 413 368 430T299 448Q270 448 239 440T184 419V0H64V769Z" />
<glyph unicode="&#x128;" glyph-name="Itilde" horiz-adv-x="285" d="M81 721H204V0H81V721ZM224 777Q231 843 262 878T334 914Q354 914 372 908T406 894T436 880T464 874Q482 874 492 886T505 916H575Q568 850 537 815T465 779Q445 779 427 785T393 798T363 812T335
818Q317 818 307 806T294 777H224V777Z" />
<glyph unicode="&#x129;" glyph-name="itilde" horiz-adv-x="246" d="M63 541H183V0H63V541ZM207 627Q214 690 245 723T316 757Q336 757 353 751T386 737T416 723T443 717Q461 717 470 729T483 759H553Q546 696 516 663T444 629Q424 629 407 635T374 648T344 662T317
668Q299 668 290 656T277 627H207V627Z" />
<glyph unicode="&#x12a;" glyph-name="Imacron" horiz-adv-x="285" d="M81 721H204V0H81V721ZM239 886H559V798H239V886Z" />
<glyph unicode="&#x12b;" glyph-name="imacron" horiz-adv-x="246" d="M-8 736H253V644H-8V736ZM63 541H183V0H63V541Z" />
<glyph unicode="&#x12c;" glyph-name="Ibreve" horiz-adv-x="285" d="M81 721H204V0H81V721ZM400 776Q332 776 289 816T241 922H327Q332 893 351 879T400 864Q429 864 448 878T473 922H559Q555 856 512 816T400 776Z" />
<glyph unicode="&#x12d;" glyph-name="ibreve" horiz-adv-x="246" d="M63 541H183V0H63V541ZM381 617Q349 617 321 627T271 660T236 715T223 792H308Q312 750 331 730T381 709Q412 709 431 729T454 792H539Q539 748 527 715T492 660T442 628T381 617Z" />
<glyph unicode="&#x12e;" glyph-name="Iogonek" horiz-adv-x="285" d="M81 721H204V6Q168 -23 154 -48T139 -100Q139 -140 182 -140Q196 -140 211 -137T232 -132V-198Q221 -204 200 -210T156 -217Q94 -217 66 -190T38 -117Q38 -84 49 -61T81 -20V721Z" />
<glyph unicode="&#x12f;" glyph-name="iogonek" horiz-adv-x="246" d="M183 541V12Q142 -18 127 -46T111 -100Q111 -140 154 -140Q168 -140 183 -137T204 -132V-198Q193 -204 172 -210T128 -217Q66 -217 38 -191T10 -120Q10 -80 24 -54T63 -7V541H183ZM61 752H185V637H61V752Z"
/>
<glyph unicode="&#x130;" glyph-name="Idotaccent" horiz-adv-x="285" d="M81 721H204V0H81V721ZM337 901H461V786H337V901Z" />
<glyph unicode="&#x131;" glyph-name="dotlessi" horiz-adv-x="246" d="M63 541H183V0H63V541Z" />
<glyph unicode="&#x132;" glyph-name="IJ" horiz-adv-x="718" d="M448 -5Q403 -5 374 2T316 24V121Q338 113 363 107T421 101Q471 101 494 124T518 198V723H641V185Q641 144 630 109T595 49T535 9T448 -5ZM81 721H204V0H81V721Z" />
<glyph unicode="&#x133;" glyph-name="ij" horiz-adv-x="492" d="M270 -207Q240 -207 219 -202T183 -188V-105Q195 -107 207 -109T234 -111Q269 -111 289 -94T309 -37V541H429V-46Q429 -81 420 -110T392 -161T343 -195T270 -207ZM61 752H185V637H61V752ZM63 541H183V0H63V541ZM307
752H431V637H307V752Z" />
<glyph unicode="&#x134;" glyph-name="Jcircumflex" horiz-adv-x="463" d="M183 -7Q134 -7 102 0T41 22V119Q63 111 92 105T156 99Q210 99 236 123T263 201V721H386V188Q386 145 374 110T337 48T274 8T183 -7ZM278 922H384L508 777H415L330 839L247 777H154L278 922Z" />
<glyph unicode="&#x135;" glyph-name="jcircumflex" horiz-adv-x="246" d="M24 -207Q-6 -207 -27 -202T-63 -188V-105Q-51 -107 -39 -109T-12 -111Q23 -111 43 -94T63 -37V541H183V-46Q183 -81 174 -110T146 -161T97 -195T24 -207ZM327 802H433L557 617H464L379
719L296 617H203L327 802Z" />
<glyph unicode="&#x136;" glyph-name="Kcommaaccent" horiz-adv-x="621" d="M262 -67H378L339 -242H257L262 -67ZM228 366L462 721H592L357 376L607 0H470L228 366ZM80 721H204V0H80V721Z" />
<glyph unicode="&#x137;" glyph-name="kcommaaccent" horiz-adv-x="510" d="M64 769H184V0H64V769ZM200 281L365 541H491L323 288L505 0H373L200 281ZM207 -67H323L284 -242H202L207 -67Z" />
<glyph unicode="&#x139;" glyph-name="Lacute" horiz-adv-x="535" d="M80 721H203V102H500V0H80V721ZM446 777H342L415 927H544L446 777Z" />
<glyph unicode="&#x13a;" glyph-name="lacute" horiz-adv-x="300" d="M199 -7Q137 -7 101 23T64 124V769H184V143Q184 89 241 89Q250 89 259 90T278 93V11Q265 3 246 -2T199 -7ZM434 827H330L403 977H532L434 827Z" />
<glyph unicode="&#x13b;" glyph-name="Lcommaaccent" horiz-adv-x="535" d="M80 721H203V102H500V0H80V721ZM236 -67H352L313 -242H231L236 -67Z" />
<glyph unicode="&#x13c;" glyph-name="lcommaaccent" horiz-adv-x="300" d="M199 -7Q137 -7 101 23T64 124V769H184V143Q184 89 241 89Q250 89 259 90T278 93V11Q265 3 246 -2T199 -7ZM378 -67H494L455 -242H373L378 -67Z" />
<glyph unicode="&#x13d;" glyph-name="Lcaron" horiz-adv-x="535" d="M80 721H203V102H500V0H80V721ZM287 978H394L363 804H283L287 978Z" />
<glyph unicode="&#x13e;" glyph-name="lcaron" horiz-adv-x="300" d="M199 -7Q137 -7 101 23T64 124V769H184V143Q184 89 241 89Q250 89 259 90T278 93V11Q265 3 246 -2T199 -7ZM237 769H344L313 595H233L237 769Z" />
<glyph unicode="&#x13f;" glyph-name="Ldot" horiz-adv-x="545" d="M80 721H203V102H500V0H80V721Z" />
<glyph unicode="&#x140;" glyph-name="ldot" horiz-adv-x="394" d="M199 -7Q137 -7 101 23T64 124V769H184V143Q184 89 241 89Q250 89 259 90T278 93V11Q265 3 246 -2T199 -7Z" />
<glyph unicode="&#x141;" glyph-name="Lslash" horiz-adv-x="535" d="M8 315L80 344V721H203V394L404 476V377L203 295V102H500V0H80V245L8 216V315Z" />
<glyph unicode="&#x142;" glyph-name="lslash" horiz-adv-x="300" d="M199 -7Q137 -7 101 23T64 124V320L-9 279V382L64 423V769H184V491L278 544V441L184 388V143Q184 89 241 89Q250 89 259 90T278 93V11Q265 3 246 -2T199 -7Z" />
<glyph unicode="&#x143;" glyph-name="Nacute" horiz-adv-x="704" d="M80 721H218L399 407Q420 370 441 328T480 249Q500 206 519 164H522Q519 208 517 253Q515 291 514 335T512 419V721H624V0H503L304 349Q283 386 262 429T223 509Q203 552 184 595H180Q183 550
186 504Q188 465 190 420T192 337V0H80V721ZM409 777H305L378 927H507L409 777Z" />
<glyph unicode="&#x144;" glyph-name="nacute" horiz-adv-x="567" d="M64 541H180V483H185Q217 513 261 532T355 551Q430 551 467 516T505 402V0H385V372Q385 413 368 430T299 448Q270 448 239 440T184 419V0H64V541ZM326 787H455L337 617H233L326 787Z" />
<glyph unicode="&#x145;" glyph-name="Ncommaaccent" horiz-adv-x="704" d="M80 721H218L399 407Q420 370 441 328T480 249Q500 206 519 164H522Q519 208 517 253Q515 291 514 335T512 419V721H624V0H503L304 349Q283 386 262 429T223 509Q203 552 184 595H180Q183
550 186 504Q188 465 190 420T192 337V0H80V721ZM295 -67H411L372 -242H290L295 -67Z" />
<glyph unicode="&#x146;" glyph-name="ncommaaccent" horiz-adv-x="567" d="M64 541H180V483H185Q217 513 261 532T355 551Q430 551 467 516T505 402V0H385V372Q385 413 368 430T299 448Q270 448 239 440T184 419V0H64V541ZM228 -67H344L305 -242H223L228 -67Z" />
<glyph unicode="&#x147;" glyph-name="Ncaron" horiz-adv-x="704" d="M80 721H218L399 407Q420 370 441 328T480 249Q500 206 519 164H522Q519 208 517 253Q515 291 514 335T512 419V721H624V0H503L304 349Q283 386 262 429T223 509Q203 552 184 595H180Q183 550
186 504Q188 465 190 420T192 337V0H80V721ZM410 777H304L180 922H273L356 860L441 922H534L410 777Z" />
<glyph unicode="&#x148;" glyph-name="ncaron" horiz-adv-x="567" d="M64 541H180V483H185Q217 513 261 532T355 551Q430 551 467 516T505 402V0H385V372Q385 413 368 430T299 448Q270 448 239 440T184 419V0H64V541ZM336 617H230L109 802H199L284 700L367 802H457L336
617Z" />
<glyph unicode="&#x149;" glyph-name="napostrophe" horiz-adv-x="627" d="M124 541H240V483H245Q277 513 321 532T415 551Q490 551 527 516T565 402V0H445V372Q445 413 428 430T359 448Q330 448 299 440T244 419V0H124V541ZM215 721H342L303 476H202L215 721Z" />
<glyph unicode="&#x14a;" glyph-name="Eng" horiz-adv-x="704" d="M424 -207Q381 -207 351 -200T297 -181V-85Q315 -91 341 -96T400 -101Q449 -101 475 -77T501 -8V4L304 349Q283 386 262 429T223 509Q203 552 184 595H180Q183 550 186 504Q188 465 190 420T192
337V0H80V721H218L399 407Q420 370 441 328T480 249Q500 206 519 164H522Q519 208 517 253Q515 291 514 335T512 419V721H624V-22Q624 -61 611 -95T573 -154T510 -193T424 -207Z" />
<glyph unicode="&#x14b;" glyph-name="eng" horiz-adv-x="567" d="M346 -207Q316 -207 295 -202T259 -188V-105Q271 -107 283 -109T310 -111Q345 -111 365 -94T385 -37V372Q385 413 368 430T299 448Q270 448 239 440T184 419V0H64V541H180V483H185Q217 513 261
532T355 551Q430 551 467 516T505 402V-46Q505 -81 496 -110T468 -161T419 -195T346 -207Z" />
<glyph unicode="&#x14c;" glyph-name="Omacron" horiz-adv-x="708" d="M352 -12Q284 -12 228 8T132 71T71 177T49 327V393Q49 477 71 540T134 646T231 711T356 733Q424 733 480 713T575 650T637 544T659 393V327Q659 243 637 180T574 74T477 10T352 -12ZM356 86Q445
86 487 145T530 313V392Q530 513 490 573T352 634Q263 634 221 576T178 409V330Q178 208 219 147T356 86ZM194 886H514V798H194V886Z" />
<glyph unicode="&#x14d;" glyph-name="omacron" horiz-adv-x="564" d="M283 -10Q166 -10 101 55T36 245V291Q36 355 55 403T107 485T185 534T284 551Q399 551 463 487T528 296V250Q528 185 510 137T459 56T381 7T283 -10ZM285 83Q342 83 372 119T403 240V295Q403
346 394 377T368 427T329 451T282 458Q225 458 193 421T161 300V244Q161 194 170 163T197 114T236 90T285 83ZM138 736H425V644H138V736Z" />
<glyph unicode="&#x14e;" glyph-name="Obreve" horiz-adv-x="708" d="M352 -12Q284 -12 228 8T132 71T71 177T49 327V393Q49 477 71 540T134 646T231 711T356 733Q424 733 480 713T575 650T637 544T659 393V327Q659 243 637 180T574 74T477 10T352 -12ZM356 86Q445
86 487 145T530 313V392Q530 513 490 573T352 634Q263 634 221 576T178 409V330Q178 208 219 147T356 86ZM355 776Q287 776 244 816T196 922H282Q287 893 306 879T355 864Q384 864 403 878T428 922H514Q510 856 467 816T355 776Z" />
<glyph unicode="&#x14f;" glyph-name="obreve" horiz-adv-x="564" d="M283 -10Q166 -10 101 55T36 245V291Q36 355 55 403T107 485T185 534T284 551Q399 551 463 487T528 296V250Q528 185 510 137T459 56T381 7T283 -10ZM285 83Q342 83 372 119T403 240V295Q403
346 394 377T368 427T329 451T282 458Q225 458 193 421T161 300V244Q161 194 170 163T197 114T236 90T285 83ZM281 617Q249 617 221 627T171 660T136 715T123 792H208Q212 750 231 730T281 709Q312 709 331 729T354 792H439Q439 748 427 715T392 660T342 628T281
617Z" />
<glyph unicode="&#x150;" glyph-name="Ohungarumlaut" horiz-adv-x="708" d="M352 -12Q284 -12 228 8T132 71T71 177T49 327V393Q49 477 71 540T134 646T231 711T356 733Q424 733 480 713T575 650T637 544T659 393V327Q659 243 637 180T574 74T477 10T352 -12ZM356
86Q445 86 487 145T530 313V392Q530 513 490 573T352 634Q263 634 221 576T178 409V330Q178 208 219 147T356 86ZM437 916H541L479 777H397L437 916ZM266 916H371L308 777H226L266 916Z" />
<glyph unicode="&#x151;" glyph-name="ohungarumlaut" horiz-adv-x="564" d="M283 -10Q166 -10 101 55T36 245V291Q36 355 55 403T107 485T185 534T284 551Q399 551 463 487T528 296V250Q528 185 510 137T459 56T381 7T283 -10ZM285 83Q342 83 372 119T403 240V295Q403
346 394 377T368 427T329 451T282 458Q225 458 193 421T161 300V244Q161 194 170 163T197 114T236 90T285 83ZM375 792H480L401 617H318L375 792ZM207 792H313L233 617H150L207 792Z" />
<glyph unicode="&#x152;" glyph-name="OE" horiz-adv-x="978" d="M374 0Q294 0 234 18T132 76T70 178T49 326V378Q49 547 127 634T372 721H913V619H600V421H843V320H600V102H919V0H374ZM478 102V619H372Q320 619 283 607T223 568T189 498T178 391V325Q178 259
191 216T229 147T293 112T382 102H478Z" />
<glyph unicode="&#x153;" glyph-name="oe" horiz-adv-x="915" d="M683 -10Q603 -10 552 14T473 85Q444 37 397 14T285 -10Q168 -10 102 55T36 245V291Q36 355 55 403T107 485T187 534T286 551Q422 551 476 459Q504 506 550 528T658 551Q776 551 829 490T882 302V235H537Q538
190 550 162T583 117T635 95T704 89Q757 89 793 99T865 127V40Q838 23 795 7T683 -10ZM290 83Q347 83 380 119T413 240V295Q413 346 403 377T375 427T335 451T287 458Q231 458 196 421T161 300V244Q161 194 171 163T199 114T240 90T290 83ZM654 461Q633 461 613
456T576 435T548 392T536 320H762Q762 360 755 387T733 431T699 454T654 461Z" />
<glyph unicode="&#x154;" glyph-name="Racute" horiz-adv-x="617" d="M80 721H317Q438 721 496 669T554 510Q554 434 522 391T421 325V320L600 0H466L309 285H202V0H80V721ZM305 380Q374 380 401 411T429 505Q429 568 401 595T303 622H201V380H305ZM347 777H243L316
927H445L347 777Z" />
<glyph unicode="&#x155;" glyph-name="racute" horiz-adv-x="368" d="M59 541H174V467H180Q190 484 205 499T240 525T279 542T321 549Q346 549 353 544V434Q345 436 333 437T311 438Q276 438 240 428T179 401V0H59V541ZM514 787H643L525 617H421L514 787Z" />
<glyph unicode="&#x156;" glyph-name="Rcommaaccent" horiz-adv-x="617" d="M80 721H317Q438 721 496 669T554 510Q554 434 522 391T421 325V320L600 0H466L309 285H202V0H80V721ZM305 380Q374 380 401 411T429 505Q429 568 401 595T303 622H201V380H305ZM263
-67H379L340 -242H258L263 -67Z" />
<glyph unicode="&#x157;" glyph-name="rcommaaccent" horiz-adv-x="368" d="M59 541H174V467H180Q190 484 205 499T240 525T279 542T321 549Q346 549 353 544V434Q345 436 333 437T311 438Q276 438 240 428T179 401V0H59V541ZM61 -67H177L138 -242H56L61 -67Z" />
<glyph unicode="&#x158;" glyph-name="Rcaron" horiz-adv-x="617" d="M80 721H317Q438 721 496 669T554 510Q554 434 522 391T421 325V320L600 0H466L309 285H202V0H80V721ZM305 380Q374 380 401 411T429 505Q429 568 401 595T303 622H201V380H305ZM351 777H245L121
922H214L297 860L382 922H475L351 777Z" />
<glyph unicode="&#x159;" glyph-name="rcaron" horiz-adv-x="368" d="M59 541H174V467H180Q190 484 205 499T240 525T279 542T321 549Q346 549 353 544V434Q345 436 333 437T311 438Q276 438 240 428T179 401V0H59V541ZM531 617H425L304 802H394L479 700L562 802H652L531
617Z" />
<glyph unicode="&#x15a;" glyph-name="Sacute" horiz-adv-x="535" d="M246 -14Q177 -14 126 -1T38 33V135Q81 115 130 103T236 90Q307 90 339 118T371 196Q371 241 349 263T273 303L193 330Q157 342 129 358T82 397T53 453T43 530Q43 574 57 611T101 676T173 718T276
733Q344 733 385 721T455 695V593Q423 607 380 618T279 629Q222 629 193 607T163 540Q163 498 180 477T246 439L326 412Q365 399 396 383T449 344T483 288T495 207Q495 106 434 46T246 -14ZM319 777H215L288 927H417L319 777Z" />
<glyph unicode="&#x15b;" glyph-name="sacute" horiz-adv-x="441" d="M208 -9Q157 -9 112 0T34 26V122Q51 115 67 109T101 99T142 92T192 89Q246 89 269 104T293 149Q293 176 281 190T224 216L165 230Q135 237 111 249T70 279T44 324T35 387Q35 462 82 506T230
551Q284 551 320 543T383 521V427Q360 437 323 445T241 454Q149 454 149 396Q149 369 163 356T213 334L272 320Q349 302 380 266T411 159Q411 75 359 33T208 -9ZM512 787H641L523 617H419L512 787Z" />
<glyph unicode="&#x15c;" glyph-name="Scircumflex" horiz-adv-x="535" d="M246 -14Q177 -14 126 -1T38 33V135Q81 115 130 103T236 90Q307 90 339 118T371 196Q371 241 349 263T273 303L193 330Q157 342 129 358T82 397T53 453T43 530Q43 574 57 611T101 676T173
718T276 733Q344 733 385 721T455 695V593Q423 607 380 618T279 629Q222 629 193 607T163 540Q163 498 180 477T246 439L326 412Q365 399 396 383T449 344T483 288T495 207Q495 106 434 46T246 -14ZM217 922H323L447 777H354L269 839L186 777H93L217 922Z" />
<glyph unicode="&#x15d;" glyph-name="scircumflex" horiz-adv-x="441" d="M208 -9Q157 -9 112 0T34 26V122Q51 115 67 109T101 99T142 92T192 89Q246 89 269 104T293 149Q293 176 281 190T224 216L165 230Q135 237 111 249T70 279T44 324T35 387Q35 462 82 506T230
551Q284 551 320 543T383 521V427Q360 437 323 445T241 454Q149 454 149 396Q149 369 163 356T213 334L272 320Q349 302 380 266T411 159Q411 75 359 33T208 -9ZM423 802H529L653 617H560L475 719L392 617H299L423 802Z" />
<glyph unicode="&#x15e;" glyph-name="Scedilla" horiz-adv-x="535" d="M246 -14Q177 -14 126 -1T38 33V135Q81 115 130 103T236 90Q307 90 339 118T371 196Q371 241 349 263T273 303L193 330Q157 342 129 358T82 397T53 453T43 530Q43 574 57 611T101 676T173
718T276 733Q344 733 385 721T455 695V593Q423 607 380 618T279 629Q222 629 193 607T163 540Q163 498 180 477T246 439L326 412Q365 399 396 383T449 344T483 288T495 207Q495 106 434 46T246 -14ZM408 -190Q443 -186 465 -181T499 -170T515 -157T519 -140Q519
-123 504 -116T440 -107V0H516V-52Q570 -57 593 -78T616 -137Q616 -158 608 -177T576 -210T513 -235T408 -249V-190Z" />
<glyph unicode="&#x15f;" glyph-name="scedilla" horiz-adv-x="441" d="M208 -9Q157 -9 112 0T34 26V122Q51 115 67 109T101 99T142 92T192 89Q246 89 269 104T293 149Q293 176 281 190T224 216L165 230Q135 237 111 249T70 279T44 324T35 387Q35 462 82 506T230
551Q284 551 320 543T383 521V427Q360 437 323 445T241 454Q149 454 149 396Q149 369 163 356T213 334L272 320Q349 302 380 266T411 159Q411 75 359 33T208 -9ZM376 -189Q411 -185 433 -180T467 -169T483 -156T487 -139Q487 -122 472 -115T408 -106V1H484V-51Q538
-56 561 -77T584 -136Q584 -157 576 -176T544 -209T481 -234T376 -248V-189Z" />
<glyph unicode="&#x160;" glyph-name="Scaron" horiz-adv-x="535" d="M246 -14Q177 -14 126 -1T38 33V135Q81 115 130 103T236 90Q307 90 339 118T371 196Q371 241 349 263T273 303L193 330Q157 342 129 358T82 397T53 453T43 530Q43 574 57 611T101 676T173 718T276
733Q344 733 385 721T455 695V593Q423 607 380 618T279 629Q222 629 193 607T163 540Q163 498 180 477T246 439L326 412Q365 399 396 383T449 344T483 288T495 207Q495 106 434 46T246 -14ZM323 777H217L93 922H186L269 860L354 922H447L323 777Z" />
<glyph unicode="&#x161;" glyph-name="scaron" horiz-adv-x="441" d="M208 -9Q157 -9 112 0T34 26V122Q51 115 67 109T101 99T142 92T192 89Q246 89 269 104T293 149Q293 176 281 190T224 216L165 230Q135 237 111 249T70 279T44 324T35 387Q35 462 82 506T230
551Q284 551 320 543T383 521V427Q360 437 323 445T241 454Q149 454 149 396Q149 369 163 356T213 334L272 320Q349 302 380 266T411 159Q411 75 359 33T208 -9ZM528 617H422L301 802H391L476 700L559 802H649L528 617Z" />
<glyph unicode="&#x162;" glyph-name="Tcommaaccent" horiz-adv-x="571" d="M223 619H27V721H544V619H346V0H223V619ZM228 -67H344L305 -242H223L228 -67Z" />
<glyph unicode="&#x163;" glyph-name="tcommaaccent" horiz-adv-x="392" d="M441 -67H557L518 -242H436L441 -67ZM253 -7Q219 -7 192 0T146 23T116 65T105 131V446H16V541H105V672H225V541H364V446H225V150Q225 115 239 102T292 89Q309 89 333 93T371 103V21Q354
10 323 2T253 -7Z" />
<glyph unicode="&#x164;" glyph-name="Tcaron" horiz-adv-x="571" d="M223 619H27V721H544V619H346V0H223V619ZM340 777H234L110 922H203L286 860L371 922H464L340 777Z" />
<glyph unicode="&#x165;" glyph-name="tcaron" horiz-adv-x="392" d="M253 -7Q219 -7 192 0T146 23T116 65T105 131V446H16V541H105V672H225V541H364V446H225V150Q225 115 239 102T292 89Q309 89 333 93T371 103V21Q354 10 323 2T253 -7ZM284 769H391L360 595H280L284
769Z" />
<glyph unicode="&#x166;" glyph-name="Tbar" horiz-adv-x="571" d="M506 378H63V470H506V378ZM223 619H27V721H544V619H346V0H223V619Z" />
<glyph unicode="&#x167;" glyph-name="tbar" horiz-adv-x="392" d="M364 371V276H16V371H364ZM253 -7Q219 -7 192 0T146 23T116 65T105 131V446H16V541H105V672H225V541H364V446H225V150Q225 115 239 102T292 89Q309 89 333 93T371 103V21Q354 10 323 2T253 -7Z" />
<glyph unicode="&#x168;" glyph-name="Utilde" horiz-adv-x="692" d="M349 -14Q215 -14 146 48T76 238V721H199V244Q199 198 209 167T238 118T286 92T353 84Q391 84 419 91T466 117T494 167T504 245V721H616V240Q616 109 550 48T349 -14ZM174 777Q181 843 212
878T284 914Q304 914 322 908T356 894T386 880T414 874Q432 874 442 886T455 916H525Q518 850 487 815T415 779Q395 779 377 785T343 798T313 812T285 818Q267 818 257 806T244 777H174V777Z" />
<glyph unicode="&#x169;" glyph-name="utilde" horiz-adv-x="560" d="M218 -10Q141 -10 102 29T62 148V541H182V172Q182 127 198 108T263 88Q297 88 324 99T376 123V541H496V0H393L383 58H378Q344 29 306 10T218 -10ZM110 627Q117 690 148 723T219 757Q239 757
256 751T289 737T319 723T346 717Q364 717 373 729T386 759H456Q449 696 419 663T347 629Q327 629 310 635T277 648T247 662T220 668Q202 668 193 656T180 627H110V627Z" />
<glyph unicode="&#x16a;" glyph-name="Umacron" horiz-adv-x="692" d="M349 -14Q215 -14 146 48T76 238V721H199V244Q199 198 209 167T238 118T286 92T353 84Q391 84 419 91T466 117T494 167T504 245V721H616V240Q616 109 550 48T349 -14ZM189 886H509V798H189V886Z" />
<glyph unicode="&#x16b;" glyph-name="umacron" horiz-adv-x="560" d="M218 -10Q141 -10 102 29T62 148V541H182V172Q182 127 198 108T263 88Q297 88 324 99T376 123V541H496V0H393L383 58H378Q344 29 306 10T218 -10ZM138 736H425V644H138V736Z" />
<glyph unicode="&#x16c;" glyph-name="Ubreve" horiz-adv-x="692" d="M349 -14Q215 -14 146 48T76 238V721H199V244Q199 198 209 167T238 118T286 92T353 84Q391 84 419 91T466 117T494 167T504 245V721H616V240Q616 109 550 48T349 -14ZM350 776Q282 776 239
816T191 922H277Q282 893 301 879T350 864Q379 864 398 878T423 922H509Q505 856 462 816T350 776Z" />
<glyph unicode="&#x16d;" glyph-name="ubreve" horiz-adv-x="560" d="M218 -10Q141 -10 102 29T62 148V541H182V172Q182 127 198 108T263 88Q297 88 324 99T376 123V541H496V0H393L383 58H378Q344 29 306 10T218 -10ZM283 617Q251 617 223 627T173 660T138 715T125
792H210Q214 750 233 730T283 709Q314 709 333 729T356 792H441Q441 748 429 715T394 660T344 628T283 617Z" />
<glyph unicode="&#x16e;" glyph-name="Uring" horiz-adv-x="692" d="M349 -14Q215 -14 146 48T76 238V721H199V244Q199 198 209 167T238 118T286 92T353 84Q391 84 419 91T466 117T494 167T504 245V721H616V240Q616 109 550 48T349 -14ZM349 1014Q324 1014 302
1023T264 1047T239 1082T230 1127Q230 1150 239 1170T264 1206T302 1231T349 1240Q374 1240 396 1231T434 1207T459 1171T468 1127Q468 1103 459 1083T434 1047T396 1023T349 1014ZM349 1069Q374 1069 389 1085T405 1127Q405 1153 390 1169T349 1185Q324 1185 309
1169T293 1127Q293 1101 308 1085T349 1069Z" />
<glyph unicode="&#x16f;" glyph-name="uring" horiz-adv-x="560" d="M218 -10Q141 -10 102 29T62 148V541H182V172Q182 127 198 108T263 88Q297 88 324 99T376 123V541H496V0H393L383 58H378Q344 29 306 10T218 -10ZM282 610Q257 610 235 619T197 643T172 678T163
723Q163 746 172 766T197 802T235 827T282 836Q307 836 329 827T367 803T392 767T401 723Q401 699 392 679T367 643T329 619T282 610ZM282 665Q307 665 322 681T338 723Q338 749 323 765T282 781Q257 781 242 765T226 723Q226 697 241 681T282 665Z" />
<glyph unicode="&#x170;" glyph-name="Uhungarumlaut" horiz-adv-x="692" d="M349 -14Q215 -14 146 48T76 238V721H199V244Q199 198 209 167T238 118T286 92T353 84Q391 84 419 91T466 117T494 167T504 245V721H616V240Q616 109 550 48T349 -14ZM434 916H538L476
777H394L434 916ZM263 916H368L305 777H223L263 916Z" />
<glyph unicode="&#x171;" glyph-name="uhungarumlaut" horiz-adv-x="560" d="M218 -10Q141 -10 102 29T62 148V541H182V172Q182 127 198 108T263 88Q297 88 324 99T376 123V541H496V0H393L383 58H378Q344 29 306 10T218 -10ZM376 792H481L402 617H319L376 792ZM208
792H314L234 617H151L208 792Z" />
<glyph unicode="&#x172;" glyph-name="Uogonek" horiz-adv-x="692" d="M411 -217Q349 -217 321 -191T293 -120Q293 -86 314 -59T362 -14H349Q215 -14 146 48T76 238V721H199V244Q199 198 209 167T238 118T286 92T353 84Q391 84 419 91T466 117T494 167T504 245V721H616V240Q616
189 606 151T579 85T539 39T491 11Q461 -1 443 -14T413 -42T398 -70T394 -100Q394 -140 437 -140Q451 -140 466 -137T487 -132V-198Q476 -204 455 -210T411 -217Z" />
<glyph unicode="&#x173;" glyph-name="uogonek" horiz-adv-x="560" d="M218 -10Q141 -10 102 29T62 148V541H182V172Q182 127 198 108T263 88Q297 88 324 99T376 123V541H496V10Q456 -20 441 -47T426 -100Q426 -140 469 -140Q483 -140 498 -137T519 -132V-198Q508
-204 487 -210T443 -217Q381 -217 353 -191T325 -120Q325 -80 343 -53T394 -6L383 58H378Q344 29 306 10T218 -10Z" />
<glyph unicode="&#x174;" glyph-name="Wcircumflex" horiz-adv-x="894" d="M11 721H133L204 417Q215 372 223 317T240 211Q248 153 256 94H259Q267 153 277 212Q285 262 295 318T318 420L397 721H509L586 420Q597 375 608 319T627 212Q637 153 645 94H648Q655
153 664 211Q672 261 681 316T701 417L771 721H881L708 0H586L494 350Q484 387 476 434T462 524Q455 573 449 623H446Q441 573 434 524Q428 482 420 435T401 350L307 0H185L11 721ZM399 922H505L629 777H536L451 839L368 777H275L399 922Z" />
<glyph unicode="&#x175;" glyph-name="wcircumflex" horiz-adv-x="772" d="M15 541H140L188 341Q196 309 204 266T218 183Q225 137 232 89H236Q242 136 250 182Q257 221 265 264T283 341L337 541H445L499 341Q507 309 516 266T533 183Q542 137 549 89H553Q560
136 567 182Q573 221 580 264T596 341L643 541H752L607 0H485L424 220Q415 250 409 289T397 363Q392 403 387 446H383Q379 403 374 363Q369 328 362 289T347 220L286 0H161L15 541ZM338 802H444L568 617H475L390 719L307 617H214L338 802Z" />
<glyph unicode="&#x176;" glyph-name="Ycircumflex" horiz-adv-x="588" d="M232 280L5 721H134L213 561Q228 531 243 494T270 425Q284 387 298 350H301Q314 387 328 425Q340 457 354 494T384 561L461 721H581L355 280V0H232V280ZM249 922H355L479 777H386L301
839L218 777H125L249 922Z" />
<glyph unicode="&#x177;" glyph-name="ycircumflex" horiz-adv-x="511" d="M110 -207Q89 -207 66 -203T30 -190V-105Q53 -110 83 -110Q119 -110 142 -94T180 -40L199 11L11 541H138L197 365Q211 323 222 277T242 192Q252 147 259 104H262Q270 147 280 192Q288
230 299 276T325 365L381 541H500L293 -59Q267 -136 225 -171T110 -207ZM210 802H316L440 617H347L262 719L179 617H86L210 802Z" />
<glyph unicode="&#x178;" glyph-name="Ydieresis" horiz-adv-x="588" d="M232 280L5 721H134L213 561Q228 531 243 494T270 425Q284 387 298 350H301Q314 387 328 425Q340 457 354 494T384 561L461 721H581L355 280V0H232V280ZM351 893H468V782H351V893ZM136 893H253V782H136V893Z"
/>
<glyph unicode="&#x179;" glyph-name="Zacute" horiz-adv-x="569" d="M34 94L289 470Q305 493 325 518T365 566Q387 592 409 616V619H60V721H534V628L281 254Q265 230 245 204T205 156Q183 130 160 105V102H525V0H34V94ZM349 777H245L318 927H447L349 777Z" />
<glyph unicode="&#x17a;" glyph-name="zacute" horiz-adv-x="478" d="M34 89L198 311Q216 336 236 359T273 402Q292 424 312 443V446H46V541H442V457L277 232Q258 206 238 182T201 139Q181 117 161 97V93H440V0H34V89ZM540 787H669L551 617H447L540 787Z" />
<glyph unicode="&#x17b;" glyph-name="Zdotaccent" horiz-adv-x="569" d="M34 94L289 470Q305 493 325 518T365 566Q387 592 409 616V619H60V721H534V628L281 254Q265 230 245 204T205 156Q183 130 160 105V102H525V0H34V94ZM239 901H363V786H239V901Z" />
<glyph unicode="&#x17c;" glyph-name="zdotaccent" horiz-adv-x="478" d="M34 89L198 311Q216 336 236 359T273 402Q292 424 312 443V446H46V541H442V457L277 232Q258 206 238 182T201 139Q181 117 161 97V93H440V0H34V89ZM442 749H566V634H442V749Z" />
<glyph unicode="&#x17d;" glyph-name="Zcaron" horiz-adv-x="569" d="M34 94L289 470Q305 493 325 518T365 566Q387 592 409 616V619H60V721H534V628L281 254Q265 230 245 204T205 156Q183 130 160 105V102H525V0H34V94ZM356 777H250L126 922H219L302 860L387
922H480L356 777Z" />
<glyph unicode="&#x17e;" glyph-name="zcaron" horiz-adv-x="478" d="M34 89L198 311Q216 336 236 359T273 402Q292 424 312 443V446H46V541H442V457L277 232Q258 206 238 182T201 139Q181 117 161 97V93H440V0H34V89ZM557 617H451L330 802H420L505 700L588 802H678L557
617Z" />
<glyph unicode="&#x192;" glyph-name="florin" horiz-adv-x="434" d="M36 438H121L140 549Q148 598 165 633T208 690T266 723T337 733Q374 733 395 728T433 717V629Q417 632 404 633T372 635Q327 635 301 613T266 533L250 438H369V339H233L174 -17Q166 -65 150
-98T112 -152T59 -181T-8 -190Q-43 -190 -65 -185T-98 -172V-85Q-90 -88 -76 -91T-47 -94Q-12 -94 13 -75T47 -7L105 339H36V438Z" />
<glyph unicode="&#x1fa;" glyph-name="Aringacute" horiz-adv-x="640" d="M321 1019Q296 1019 274 1028T236 1052T211 1087T202 1132Q202 1155 211 1175T236 1211T274 1236T321 1245Q346 1245 368 1236T406 1212T431 1176T440 1132Q440 1108 431 1088T406 1052T368
1028T321 1019ZM321 1074Q346 1074 361 1090T377 1132Q377 1158 362 1174T321 1190Q296 1190 281 1174T265 1132Q265 1106 280 1090T321 1074ZM257 721H384L624 0H498L443 172H180L126 0H13L257 721ZM211 270H411L375 385Q362 423 352 468T333 551Q323 596 315
640H311Q303 596 292 551Q283 513 272 468T248 385L211 270ZM366 1027H262L335 1177H464L366 1027Z" />
<glyph unicode="&#x1fb;" glyph-name="aringacute" horiz-adv-x="501" d="M553 888H449L522 1038H651L553 888Z" />
<glyph unicode="&#x1fc;" glyph-name="AEacute" horiz-adv-x="935" d="M377 721H870V619H561V421H800V320H561V102H876V0H439V176H217L129 0H3L377 721ZM266 274H439V387Q439 424 439 468T441 552Q442 598 444 643H440Q422 601 404 560Q388 525 369 484T333 407L266
274ZM636 777H532L605 927H734L636 777Z" />
<glyph unicode="&#x1fd;" glyph-name="aeacute" horiz-adv-x="826" d="M207 -10Q122 -10 77 28T32 145Q32 220 76 256T199 303L328 319V362Q328 414 299 431T202 449Q164 449 131 444T73 434V521Q146 551 249 551Q367 551 405 484Q434 518 475 534T570 551Q688
551 740 490T792 302V237H451Q452 191 463 163T495 118T545 95T614 89Q667 89 703 99T775 127V40Q748 23 704 7T590 -10Q441 -10 377 75Q349 41 310 16T207 -10ZM348 129Q330 178 330 243L226 234Q187 230 170 210T152 151Q152 112 173 95T234 77Q266 77 293 90T348
129ZM569 461Q548 461 528 456T491 435T463 393T450 322H672Q672 362 666 388T646 431T614 454T569 461ZM463 787H592L474 617H370L463 787Z" />
<glyph unicode="&#x1fe;" glyph-name="Oslashacute" horiz-adv-x="708" d="M352 -12Q257 -12 190 26L133 -62H28L122 82Q87 124 68 185T49 327V393Q49 477 71 540T134 646T231 711T356 733Q451 733 521 692L567 762H671L588 635Q622 593 640 533T659 393V327Q659
243 637 180T574 74T477 10T352 -12ZM178 330Q178 248 196 194L462 602Q421 634 352 634Q263 634 221 576T178 409V330ZM356 86Q445 86 487 145T530 313V392Q530 470 514 521L249 116Q289 86 356 86ZM403 777H299L372 927H501L403 777Z" />
<glyph unicode="&#x1ff;" glyph-name="oslashacute" horiz-adv-x="564" d="M283 -10Q217 -10 165 16L114 -62H18L100 63Q69 96 53 142T36 245V291Q36 355 55 403T107 485T185 534T284 551Q317 551 347 544T403 524L442 583H537L466 475Q495 442 511 397T528 296V250Q528
185 510 137T459 56T381 7T283 -10ZM157 244Q157 196 166 163L351 445Q336 454 319 458T282 462Q224 462 191 424T157 300V244ZM285 79Q343 79 375 116T408 240V295Q408 342 399 374L216 94Q231 86 248 83T285 79ZM317 787H446L328 617H224L317 787Z" />
<glyph unicode="&#x218;" glyph-name="Scommaaccent" horiz-adv-x="535" d="M246 -14Q177 -14 126 -1T38 33V135Q81 115 130 103T236 90Q307 90 339 118T371 196Q371 241 349 263T273 303L193 330Q157 342 129 358T82 397T53 453T43 530Q43 574 57 611T101 676T173
718T276 733Q344 733 385 721T455 695V593Q423 607 380 618T279 629Q222 629 193 607T163 540Q163 498 180 477T246 439L326 412Q365 399 396 383T449 344T483 288T495 207Q495 106 434 46T246 -14ZM208 -67H324L285 -242H203L208 -67Z" />
<glyph unicode="&#x219;" glyph-name="scommaaccent" horiz-adv-x="441" d="M208 -9Q157 -9 112 0T34 26V122Q51 115 67 109T101 99T142 92T192 89Q246 89 269 104T293 149Q293 176 281 190T224 216L165 230Q135 237 111 249T70 279T44 324T35 387Q35 462 82 506T230
551Q284 551 320 543T383 521V427Q360 437 323 445T241 454Q149 454 149 396Q149 369 163 356T213 334L272 320Q349 302 380 266T411 159Q411 75 359 33T208 -9ZM421 -67H537L498 -242H416L421 -67Z" />
<glyph unicode="&#x21a;" glyph-name="uni021A" horiz-adv-x="571" d="M223 619H27V721H544V619H346V0H223V619ZM228 -67H344L305 -242H223L228 -67Z" />
<glyph unicode="&#x21b;" glyph-name="uni021B" horiz-adv-x="392" d="M441 -67H557L518 -242H436L441 -67ZM253 -7Q219 -7 192 0T146 23T116 65T105 131V446H16V541H105V672H225V541H364V446H225V150Q225 115 239 102T292 89Q309 89 333 93T371 103V21Q354 10
323 2T253 -7Z" />
<glyph unicode="&#x237;" glyph-name="uni0237" horiz-adv-x="246" d="M24 -207Q-6 -207 -27 -202T-63 -188V-105Q-51 -107 -39 -109T-12 -111Q23 -111 43 -94T63 -37V541H183V-46Q183 -81 174 -110T146 -161T97 -195T24 -207Z" />
<glyph unicode="&#x2c6;" glyph-name="circumflex" horiz-adv-x="500" d="M197 802H303L427 617H334L249 719L166 617H73L197 802Z" />
<glyph unicode="&#x2c7;" glyph-name="caron" horiz-adv-x="500" d="M303 617H197L76 802H166L251 700L334 802H424L303 617Z" />
<glyph unicode="&#x2d8;" glyph-name="breve" horiz-adv-x="500" d="M250 617Q218 617 190 627T140 660T105 715T92 792H177Q181 750 200 730T250 709Q281 709 300 729T323 792H408Q408 748 396 715T361 660T311 628T250 617Z" />
<glyph unicode="&#x2d9;" glyph-name="dotaccent" horiz-adv-x="500" d="M188 749H312V634H188V749Z" />
<glyph unicode="&#x2da;" glyph-name="ring" horiz-adv-x="500" d="M250 610Q225 610 203 619T165 643T140 678T131 723Q131 746 140 766T165 802T203 827T250 836Q275 836 297 827T335 803T360 767T369 723Q369 699 360 679T335 643T297 619T250 610ZM250 665Q275
665 290 681T306 723Q306 749 291 765T250 781Q225 781 210 765T194 723Q194 697 209 681T250 665Z" />
<glyph unicode="&#x2db;" glyph-name="ogonek" horiz-adv-x="500" d="M277 -217Q215 -217 187 -191T159 -120Q159 -99 167 -81T189 -48T219 -20T251 0H318Q287 -26 274 -50T260 -100Q260 -140 303 -140Q317 -140 332 -137T353 -132V-198Q342 -204 321 -210T277 -217Z" />
<glyph unicode="&#x2dc;" glyph-name="tilde" horiz-adv-x="500" d="M77 627Q84 690 115 723T186 757Q206 757 223 751T256 737T286 723T313 717Q331 717 340 729T353 759H423Q416 696 386 663T314 629Q294 629 277 635T244 648T214 662T187 668Q169 668 160 656T147
627H77V627Z" />
<glyph unicode="&#x2dd;" glyph-name="hungarumlaut" horiz-adv-x="500" d="M339 792H444L365 617H282L339 792ZM171 792H277L197 617H114L171 792Z" />
</font>
</defs>
</svg>
